/* XPM */
static char *result[] = {
/* columns rows colors chars-per-pixel */
"64 80 9 1 ",
"  c #181220",
". c #251E30",
"X c #551C1F",
"o c #00627C",
"O c #854024",
"+ c #CD9152",
"@ c #00AED7",
"# c #60DDF3",
"$ c None",
/* pixels */
"$$$$$$$$$$$$$$$$$$$$$$$$$$$$$$$$$$$$$$$$$$$$$$$$$$$$$$$$$$$$$$$$",
"$$$$$$$$$$$$$$$$$$$$$$$$$$$$$$$$$$$$$$$$$$$$$$$$$$$$$$$$$$$$$$$$",
"$$$$$$$$$$$$$$$$$$$$$$$$$$$$$$$$$$$$$$$$$$$$$$$$$$$$$$$$$$$$$$$$",
"$$$$$$$$$$$$$$$$$$$$$$$$$$$$$$$$$$$$$$$$$$$$$$$$$$$$$$$$$$$$$$$$",
"$$$$$$$$$$$$$$$$$$$$$$$$$$$$$$$$$$$$$$$$$$$$$$$$$$$$$$$$$$$$$$$$",
"$$$$$$$$$$$$$$$$$$$$$$$$$$$$$$$$$$$$$$$$$$$$$$$$$$$$$$$$$$$$$$$$",
"$$$$$$$$$$$$$$$$$$$$$$$$$$$$$$$$$$$$$$$$$$$$$$$$$$$$$$$$$$$$$$$$",
"$$$$$$$$$$$$$$$$$$$$$$$$$$$$$$$$$$$$$$$$$$$$$$$$$$$$$$$$$$$$$$$$",
"$$$$$$$$$$$$$$$$$$$$$$$$$$$$$$$$$$$$$$$$$$$$$$$$$$$$$$$$$$$$$$$$",
"$$$$$$$$$$$$$$$$$$$$$$$$$$$$$$$$$$$$$$$$$$$$$$$$$$$$$$$$$$$$$$$$",
"$$$$$$$$$$$$$$$$$$$$$$$$$$$$$$$$$$$$$$$$$$$$$$$$$$$$$$$$$$$$$$$$",
"$$$$$$$$$$$$$$$$$$$$$$$$$$$$$$$$$$$$$$$$$$$$$$$$$$$$$$$$$$$$$$$$",
"$$$$$$$$$$$$$$$$$$$$$$$$$$$$$$$$$$$$$$$$$$$$$$$$$$$$$$$$$$$$$$$$",
"$$$$$$$$$$$$$$$$$$$$$$$$$$$$$$$$$$$$$$$$$$$$$$$$$$$$$$$$$$$$$$$$",
"$$$$$$$$$$$$$$$$$$$$$$$$$$$$$$$$$$$$$$$$$$$$$$$$$$$$$$$$$$$$$$$$",
"$$$$$$$$$$$$$$$$$$$$$$$$$$$$$......$$$$$$$$$$$$$$$$$$$$$$$$$$$$$",
"$$$$$$$$$$$$$$$$$$$$$$$$$$$.........$$$$$$$$$$$$$$$$$$$$$$$$$$$$",
"$$$$$$$$$$$$$$$$$$$$$$$$$....    ...$$$$$$$$$$$$$$$$$$$$$$$$$$$$",
"$$$$$$$$$$$$+$$$$$$$$$$$...       ...$$$$$$$$$$$$$$$$$$$$$$$$$$$",
"$$$$$$$$$$$$O+XO+$$$$$$..   oooo   ..$$$$$$$$X++$$$$$$$$$$$$$$$$",
"$$$$$$$$$$$$XXXX $$$$$.    o@@@@o  ...$$$$++OXXX$$$$$$$$$$$$$$$$",
"$$$$$$$$$$$+OXXX   $$.    o@@@@@@o ..$$$$$$$OO++ $$$$$$$$$$$$$$$",
"$$$$$$$$$$$$XXX     $.    oo@@@ooo  ..$$$$  OXXO  $$$$$$$$$$$$$$",
"$$$$$$$$$$$$   X   .$$    .  o   o  ...$$..        $  $$$$$$$$$$",
"$$$$$$$$$$$   XX   .$..   .  .   .   ..$$..  X       $$$$$$$$$$$",
"$$$$$$$$$$$   XX   ..$.   ooo o@@o    ....  XX      $$$$$$$$$$$$",
"$$$$$$$$$$$    X   ..$..   oo oo@o    .. .  XX    $$$$$$$$$$$$$$",
"$$$$$$$$$$$$.       .  .  .o o oo.    ...   X     $$$$$$$$$$$$$$",
"$$$$$$$$$$  .       ..  . .      .    ...         $$$$$$$$$$$$$$",
"$$$$$$$$$   .       ..           .    ...        $$$$$$$$$$$$$$$",
"$$$$$$$$  $ .       ..     .o @.o   .. ..       $$$$$$$$$$$$$$$$",
"$$$$$$$$$$  ..      .      .ooooo  .   ..       $$$$$$$$$$$$$$$$",
"$$$$$$$$$$   .      ..   ..         . . ..     $$$$$$$$$$$$$$$$$",
"$$$$$$$$$$          ..    ..      ..  .  .    $$$$$$$$$$$$$$$$$$",
"$$$$$$$$$$$        .. .    ..    ..   .  ..   $$$$$$$$$$$$$$$$$$",
"$$$$$$$$$$$$      ..  .     ..  ..    .   ..   $$$$$$$$$$$$$$$$$",
"$$$$$$$$$$$$      .   .      ....    .     .   $$$$$$$$$$$$$$$$$",
"$$$$$$$$$$$$$$   ..   .   .          .     .   $$$$$$$$$$$$$$$$$",
"$$$$$$$$$$$$$$   .   .    .  .   .  .      .   $$$$$$$$$$$$$$$$$",
"$$$$$$$$$$$$$$       .    .  .   .  .      .    $$$$$$$$$$$$$$$$",
"$$$$$$$$$$$$$$$          ..  .   .  .         $$$$$$$$$$$$$$$$$$",
"$$$$$$$$$$$$$$$$         .  .. . .   .     .$$$$$$$$$$$$$$$$$$$$",
"$$$$$$$$$$$$$$$   $      .  .. . .   .     .$$$$$$$$$$$$$$$$$$$$",
"$$$$$$$$$$$$$$$$$$$$$       .  . .             $$$$$$$$$$$$$$$$$",
"$$$$$$$$$$$$$$$$$$$$$$     .  .. .       .   $$$$$$$$$$$$$$$$$$$",
"$$$$$$$$$$$$$$$$$$$$$.     .  ... .     $$$$$$$$$$$$$$$$$$$$$$$$",
"$$$$$$$$$$$$$$$$$$$       .   . . .    . $$$$$$$$$$$$$$$$$$$$$$$",
"$$$$$$$$$$$$$$$$$$$$     ..   . .  .   .   $$$$$$$$$$$$$$$$$$$$$",
"$$$$$$$$$$$$$$$$$$$$$$$  .   .. .  .   ..$$$$$$$$$$$$$$$$$$$$$$$",
"$$$$$$$$$$$$$$$$$$$$$$$$$    .. .  .   ..$$$$$$$$$$$$$$$$$$$$$$$",
"$$$$$$$$$$$$$$$$$$$$$$$$$    .. .. ..   $$$$$$$$$$$$$$$$$$$$$$$$",
"$$$$$$$$$$$$$$$$$$$$$$$$     .. ..  .  .$$$$$$$$$$$$$$$$$$$$$$$$",
"$$$$$$$$$$$$$$$$$$$$$$$     ...   . $$   $$$$$$$$$$$$$$$$$$$$$$$",
"$$$$$$$$$$$$$$$$$$$$$$$ $ . ...    .$$$$$$$$$$$$$$$$$$$$$$$$$$$$",
"$$$$$$$$$$$$$$$$$$$$$$$$$...$.$  $ ...$$$$$$$$$$$$$$$$$$$$$$$$$$",
"$$$$$$$$$$$$$$$$$$$$$$$...$$$.$$ $$$$$$$$$$$$$$$$$$$$$$$$$$$$$$$",
"$$$$$$$$$$$$$$$$$$$$$$$$$$$$..$$$  $$$$$$$$$$$$$$$$$$$$$$$$$$$$$",
"$$$$$$$$$$$$$$$$$$$$$$$$$$$$$$$$$$$$$$$$$$$$$$$$$$$$$$$$$$$$$$$$",
"$$$$$$$$$$$$$$$$$$$$$$$$$$$$$$$$$$$$$$$$$$$$$$$$$$$$$$$$$$$$$$$$",
"$$$$$$$$$$$$$$$$$$$$$$$$$$$$$$$$$$$$$$$$$$$$$$$$$$$$$$$$$$$$$$$$",
"$$$$$$$$$$$$$$$$$$$$$$$$$$$$$$$$$$$$$$$$$$$$$$$$$$$$$$$$$$$$$$$$",
"$$$$$$$$$$$$$$$$$$$$$$$$$$$$$$$$$$$$$$$$$$$$$$$$$$$$$$$$$$$$$$$$",
"$$$$$$$$$$$$$$$$$$$$$$$$$$$$$$$$$$$$$$$$$$$$$$$$$$$$$$$$$$$$$$$$",
"$$$$$$$$$$$$$$$$$$$$$$$$$$$$$$$$$$$$$$$$$$$$$$$$$$$$$$$$$$$$$$$$",
"$$$$$$$$$$$$$$$$$$$$$$$$$$$$$$$$$$$$$$$$$$$$$$$$$$$$$$$$$$$$$$$$",
"$$$$$$$$$$$$$$$$$$$$$$$$$$$$$$$$$$$$$$$$$$$$$$$$$$$$$$$$$$$$$$$$",
"$$$$$$$$$$$$$$$$$$$$$$$$$$$$$$$$$$$$$$$$$$$$$$$$$$$$$$$$$$$$$$$$",
"$$$$$$$$$$$$$$$$$$$$$$$$$$$$$$$$$$$$$$$$$$$$$$$$$$$$$$$$$$$$$$$$",
"$$$$$$$$$$$$$$$$$$$$$$$$$$$$$$$$$$$$$$$$$$$$$$$$$$$$$$$$$$$$$$$$",
"$$$$$$$$$$$$$$$$$$$$$$$$$$$$$$$$$$$$$$$$$$$$$$$$$$$$$$$$$$$$$$$$",
"$$$$$$$$$$$$$$$$$$$$$$$$$$$$$$$$$$$$$$$$$$$$$$$$$$$$$$$$$$$$$$$$",
"$$$$$$$$$$$$$$$$$$$$$$$$$$$$$$$$$$$$$$$$$$$$$$$$$$$$$$$$$$$$$$$$",
"$$$$$$$$$$$$$$$$$$$$$$$$$$$$$$$$$$$$$$$$$$$$$$$$$$$$$$$$$$$$$$$$",
"$$$$$$$$$$$$$$$$$$$$$$$$$$$$$$$$$$$$$$$$$$$$$$$$$$$$$$$$$$$$$$$$",
"$$$$$$$$$$$$$$$$$$$$$$$$$$$$$$$$$$$$$$$$$$$$$$$$$$$$$$$$$$$$$$$$",
"$$$$$$$$$$$$$$$$$$$$$$$$$$$$$$$$$$$$$$$$$$$$$$$$$$$$$$$$$$$$$$$$",
"$$$$$$$$$$$$$$$$$$$$$$$$$$$$$$$$$$$$$$$$$$$$$$$$$$$$$$$$$$$$$$$$",
"$$$$$$$$$$$$$$$$$$$$$$$$$$$$$$$$$$$$$$$$$$$$$$$$$$$$$$$$$$$$$$$$",
"$$$$$$$$$$$$$$$$$$$$$$$$$$$$$$$$$$$$$$$$$$$$$$$$$$$$$$$$$$$$$$$$",
"$$$$$$$$$$$$$$$$$$$$$$$$$$$$$$$$$$$$$$$$$$$$$$$$$$$$$$$$$$$$$$$$"
};