/* XPM */
static char *result[] = {
/* columns rows colors chars-per-pixel */
"64 80 9 1 ",
"  c #181220",
". c #251E30",
"X c #551C1F",
"o c #00627C",
"O c #854024",
"+ c #CD9152",
"@ c #00AED7",
"# c #60DDF3",
"$ c None",
/* pixels */
"$$$$$$$$$$$$$$$$$$$$$$$$$$$$$$$$$$$$$$$$$$$$$$$$$$$$$$$$$$$$$$$$",
"$$$$$$$$$$$$$$$$$$$$$$$$$$$$$$$$$$$$$$$$$$$$$$$$$$$$$$$$$$$$$$$$",
"$$$$$$$$$$$$$$$$$$$$$$$$$$$$$$$$$$$$$$$$$$$$$$$$$$$$$$$$$$$$$$$$",
"$$$$$$$$$$$$$$$$$$$$$$$$$$$$$$$$$$$$$$$$$$$$$$$$$$$$$$$$$$$$$$$$",
"$$$$$$$$$$$$$$$$$$$$$$$$$$$$$$$$$$$$$$$$$$$$$$$$$$$$$$$$$$$$$$$$",
"$$$$$$$$$$$$$$$$$$$$$$$$$$$$$$$$$$$$$$$$$$$$$$$$$$$$$$$$$$$$$$$$",
"$$$$$$$$$$$$$$$$$$$$$$$$$$$$$$$$$$$$$$$$$$$$$$$$$$$$$$$$$$$$$$$$",
"$$$$$$$$$$$$$$$$$$$$$$$$$$$$$$$$$$$$$$$$$$$$$$$$$$$$$$$$$$$$$$$$",
"$$$$$$$$$$$$$$$$$$$$$$$$$$$$$$$$$$$$$$$$$$$$$$$$$$$$$$$$$$$$$$$$",
"$$$$$$$$$$$$$$$$$$$$$$$$$$$$$$$$$$$$$$$$$$$$$$$$$$$$$$$$$$$$$$$$",
"$$$$$$$$$$$$$$$$$$$$$$$$$$$$$$$$$$$$$$$$$$$$$$$$$$$$$$$$$$$$$$$$",
"$$$$$$$$$$$$$$$$$$$$$$$$$$$$$$$$$$$$$$$$$$$$$$$$$$$$$$$$$$$$$$$$",
"$$$$$$$$$$$$$$$$$$$$$$$$$$$$$$$$$$$$$$$$$$$$$$$$$$$$$$$$$$$$$$$$",
"$$$$$$$$$$$$$$$$$$$$$$$$$$$$$$$$$$$$$$$$$$$$$$$$$$$$$$$$$$$$$$$$",
"$$$$$$$$$$$$$$$$$$$$$$$$$$.....$$$$$$$$$$$$$$$$$$$$$$$$$$$$$$$$$",
"$$$$$$$$$$$$$$$$$$$$$$$$$.........$$$$$$$$$$$$$$$$$$$$$$$$$$$$$$",
"$$$$$$$$$$$$$$$$$$$$$$$$..      ..$$$$$$$$$$$$$$$$$$$$$$$$$$$$$$",
"$$$$$$$$$$$$$$$$$$$$$$$..        ..$$$$$$$$$$$$$$$$$$$$$$$$$$$$$",
"$$$$$$$$$$$$$$$$$$$$$$$.          ..$$$$$$$$X++$$$$$$$$$$$$$$$$$",
"$$$$$$$$$$$$$$$$$$$$$$$.    oooo    ..$$$$++XXX$$$$$$$$$$$$$$$$$",
"$$$$$$$$$$$$O++O+$$$$$$.   o@#@@o    ..$$$$O+++$$$$$$$$$$$$$$$$$",
"$$$$$$$$$$$$XXXX$$$$$$$.  o@###@@o  ...$$$$OXXO$$$$$$$$$$$$$$$$$",
"$$$$$$$$$$$++OXX$$$$$$$.  o@@#@@oo   ...$$$    $$$$$$$$$$$$$$$$$",
"$$$$$$$$$$$$XXX    $$$.   o  @   o    ..$   X  $$$$$$$$$$$$$$$$$",
"$$$$$$$$$$$$   X   $$$.   .  o   @    ..   XX   $$$$$$$$$$$$$$$$",
"$$$$$$$$$$$   XX  ..$.    o@o o@@@    ..   XX    $$$$$$$$$$$$$$$",
"$$$$$$$$$$$   XX   .$.     oo @@@o   ..    X      $$$$$$$$$$$$$$",
"$$$$$$$$$$     X   . .    .o @ @o.  .. .           $$$$$$$$$$$$$",
"$$$$$$$$$$        ..      .      .  .   .        $  $$$$$$$$$$$$",
"$$$$$$$$          .              . .    ..       $$$$$$$$$$$$$$$",
"$$$$$$$$$$        .        .o @.@  .     .      $$$$$$$$$$$$$$$$",
"$$$$$$$$$$$      ..        oo@@@o  .      .    $$$$$$$$$$$$$$$$$",
"$$$$$$$$$$$      ....        ooo     .    .    $$$$$$$$$$$$$$$$$",
"$$$$$$$$$$$$$     . ...               .  ..    $$$$$$$$$$$$$$$$$",
"$$$$$$$$$$$$$      .  . ..  ....   ..  . .      $$$$$$$$$$$$$$$$",
"$$$$$$$$$$$$$      ..    . ..  .  .     ..   $  $$$$$$$$$$$$$$$$",
"$$$$$$$$$$$$        .     ..    ..      ..   $$$$$$$$$$$$$$$$$$$",
"$$$$$$$$$$          .                  ..   $$$$$$$$$$$$$$$$$$$$",
"$$$$$$$$$$$$ ..     .    .  .    .     .    $$$$$$$$$$$$$$$$$$$$",
"$$$$$$$$$$$$$$       .  .. ..     .   .      $$$$$$$$$$$$$$$$$$$",
"$$$$$$$$$$$$$$$$$  .    .  .     ..   .       $$$$$$$$$$$$$$$$$$",
"$$$$$$$$$$$$$$$$$ ..    .  . .   . .      $$$ $$$$$$$$$$$$$$$$$$",
"$$$$$$$$$$$$$$$$$$..    .  . .   . .      $$$$$$$$$$$$$$$$$$$$$$",
"$$$$$$$$$$$$$$$$$$.$$.     . .   . .       $$$$$$$$$$$$$$$$$$$$$",
"$$$$$$$$$$$$$$$$$$$$      .  .   . .       $$$$$$$$$$$$$$$$$$$$$",
"$$$$$$$$$$$$$$$$$$$   $   .  .  .. .   .    $$$$$$$$$$$$$$$$$$$$",
"$$$$$$$$$$$$$$$$$$$ $$$$  . ..  .. .   $  $ $$$$$$$$$$$$$$$$$$$$",
"$$$$$$$$$$$$$$$$$$$$$$$$ .. . . .. .   $  $ $$$$$$$$$$$$$$$$$$$$",
"$$$$$$$$$$$$$$$$$$$$$$$$ .. . . .  .   $$ $$$$$$$$$$$$$$$$$$$$$$",
"$$$$$$$$$$$$$$$$$$$$$$$$... . . .  .   $$ $$$$$$$$$$$$$$$$$$$$$$",
"$$$$$$$$$$$$$$$$$$$$$$$.. . . . . ...$ $$$$$$$$$$$$$$$$$$$$$$$$$",
"$$$$$$$$$$$$$$$$$$$$$$..$.$ . . . $ ..$$$$$$$$$$$$$$$$$$$$$$$$$$",
"$$$$$$$$$$$$$$$$$$$$$$.$$$$.. . . $. $$$$$$$$$$$$$$$$$$$$$$$$$$$",
"$$$$$$$$$$$$$$$$$$$$$$$$$$$.. . ..$$ $$$$$$$$$$$$$$$$$$$$$$$$$$$",
"$$$$$$$$$$$$$$$$$$$$$$$$$$..$ . ..$$$$$$$$$$$$$$$$$$$$$$$$$$$$$$",
"$$$$$$$$$$$$$$$$$$$$$$$$$$.$$$. $.$$$$$$$$$$$$$$$$$$$$$$$$$$$$$$",
"$$$$$$$$$$$$$$$$$$$$$$$$$$$$$$$ $$$$$$$$$$$$$$$$$$$$$$$$$$$$$$$$",
"$$$$$$$$$$$$$$$$$$$$$$$$$$$$$$$$$$$$$$$$$$$$$$$$$$$$$$$$$$$$$$$$",
"$$$$$$$$$$$$$$$$$$$$$$$$$$$$$$$$$$$$$$$$$$$$$$$$$$$$$$$$$$$$$$$$",
"$$$$$$$$$$$$$$$$$$$$$$$$$$$$$$$$$$$$$$$$$$$$$$$$$$$$$$$$$$$$$$$$",
"$$$$$$$$$$$$$$$$$$$$$$$$$$$$$$$$$$$$$$$$$$$$$$$$$$$$$$$$$$$$$$$$",
"$$$$$$$$$$$$$$$$$$$$$$$$$$$$$$$$$$$$$$$$$$$$$$$$$$$$$$$$$$$$$$$$",
"$$$$$$$$$$$$$$$$$$$$$$$$$$$$$$$$$$$$$$$$$$$$$$$$$$$$$$$$$$$$$$$$",
"$$$$$$$$$$$$$$$$$$$$$$$$$$$$$$$$$$$$$$$$$$$$$$$$$$$$$$$$$$$$$$$$",
"$$$$$$$$$$$$$$$$$$$$$$$$$$$$$$$$$$$$$$$$$$$$$$$$$$$$$$$$$$$$$$$$",
"$$$$$$$$$$$$$$$$$$$$$$$$$$$$$$$$$$$$$$$$$$$$$$$$$$$$$$$$$$$$$$$$",
"$$$$$$$$$$$$$$$$$$$$$$$$$$$$$$$$$$$$$$$$$$$$$$$$$$$$$$$$$$$$$$$$",
"$$$$$$$$$$$$$$$$$$$$$$$$$$$$$$$$$$$$$$$$$$$$$$$$$$$$$$$$$$$$$$$$",
"$$$$$$$$$$$$$$$$$$$$$$$$$$$$$$$$$$$$$$$$$$$$$$$$$$$$$$$$$$$$$$$$",
"$$$$$$$$$$$$$$$$$$$$$$$$$$$$$$$$$$$$$$$$$$$$$$$$$$$$$$$$$$$$$$$$",
"$$$$$$$$$$$$$$$$$$$$$$$$$$$$$$$$$$$$$$$$$$$$$$$$$$$$$$$$$$$$$$$$",
"$$$$$$$$$$$$$$$$$$$$$$$$$$$$$$$$$$$$$$$$$$$$$$$$$$$$$$$$$$$$$$$$",
"$$$$$$$$$$$$$$$$$$$$$$$$$$$$$$$$$$$$$$$$$$$$$$$$$$$$$$$$$$$$$$$$",
"$$$$$$$$$$$$$$$$$$$$$$$$$$$$$$$$$$$$$$$$$$$$$$$$$$$$$$$$$$$$$$$$",
"$$$$$$$$$$$$$$$$$$$$$$$$$$$$$$$$$$$$$$$$$$$$$$$$$$$$$$$$$$$$$$$$",
"$$$$$$$$$$$$$$$$$$$$$$$$$$$$$$$$$$$$$$$$$$$$$$$$$$$$$$$$$$$$$$$$",
"$$$$$$$$$$$$$$$$$$$$$$$$$$$$$$$$$$$$$$$$$$$$$$$$$$$$$$$$$$$$$$$$",
"$$$$$$$$$$$$$$$$$$$$$$$$$$$$$$$$$$$$$$$$$$$$$$$$$$$$$$$$$$$$$$$$",
"$$$$$$$$$$$$$$$$$$$$$$$$$$$$$$$$$$$$$$$$$$$$$$$$$$$$$$$$$$$$$$$$",
"$$$$$$$$$$$$$$$$$$$$$$$$$$$$$$$$$$$$$$$$$$$$$$$$$$$$$$$$$$$$$$$$"
};