/* XPM */
static char *_ee808126b8b4605f5d0b97f93b3ba18Fbd4yWyN9ObUEQ6U[] = {
/* columns rows colors chars-per-pixel */
"86 86 251 2 ",
"   c #490800",
".  c #4B1300",
"X  c #491702",
"o  c #541400",
"O  c #541A00",
"+  c #5B1B00",
"@  c #591701",
"#  c #550D00",
"$  c #621C00",
"%  c #6C1800",
"&  c #731901",
"*  c #5C2A01",
"=  c #592402",
"-  c #572D08",
";  c #662703",
":  c #772709",
">  c #67340B",
",  c #74340D",
"<  c #793815",
"1  c #743216",
"2  c #7A3D26",
"3  c #6B3F22",
"4  c #7A441B",
"5  c #78451A",
"6  c #6E401F",
"7  c #6B4122",
"8  c #7D4B23",
"9  c #774729",
"0  c #7C4834",
"q  c #7B5535",
"w  c #7C5428",
"e  c #7C5D44",
"r  c #85320D",
"t  c #982E17",
"y  c #833D1B",
"u  c #893A17",
"i  c #98381A",
"p  c #922C0C",
"a  c #A63919",
"s  c #AC3314",
"d  c #8A3E23",
"f  c #963C23",
"g  c #842720",
"h  c #A63C23",
"j  c #B73D29",
"k  c #CB3E1D",
"l  c #C73E26",
"z  c #D33E23",
"x  c #83431D",
"c  c #8A451E",
"v  c #9A431D",
"b  c #BC471A",
"n  c #A9471A",
"m  c #834B24",
"M  c #8A4828",
"N  c #944324",
"B  c #9B4423",
"V  c #944B2A",
"C  c #99482A",
"Z  c #84522A",
"A  c #8B542C",
"S  c #97542E",
"D  c #884A35",
"F  c #964933",
"G  c #885736",
"H  c #9C5433",
"J  c #955C35",
"K  c #985938",
"L  c #A84629",
"P  c #BC432A",
"I  c #B44B2C",
"U  c #B94827",
"Y  c #A7512F",
"T  c #BC542C",
"R  c #BA5328",
"E  c #A84D33",
"W  c #B74C33",
"Q  c #A45334",
"!  c #A85739",
"~  c #B45434",
"^  c #BB5434",
"/  c #B35C3B",
"(  c #BD5C3C",
")  c #B85839",
"_  c #8A6139",
"`  c #98633A",
"'  c #A8633D",
"]  c #BB643D",
"[  c #C5441E",
"{  c #C64B1D",
"}  c #CB4D1E",
"|  c #CA451C",
" . c #D3461D",
".. c #CC521E",
"X. c #C5521E",
"o. c #D3521F",
"O. c #C54524",
"+. c #CD4523",
"@. c #C54C24",
"#. c #CC4B24",
"$. c #C3452B",
"%. c #CC462B",
"&. c #C54B2C",
"*. c #CC4C2B",
"=. c #D24523",
"-. c #D44C25",
";. c #D3452B",
":. c #D44C2B",
">. c #DA4D2B",
",. c #D94926",
"<. c #C55324",
"1. c #CC5324",
"2. c #CC5924",
"3. c #C5532C",
"4. c #CC532B",
"5. c #C45A2B",
"6. c #CD5A2C",
"7. c #C65923",
"8. c #D35324",
"9. c #DA5524",
"0. c #D35925",
"q. c #D3542B",
"w. c #DA532C",
"e. c #D35A2D",
"r. c #DB5A2C",
"t. c #DE5A25",
"y. c #C34D33",
"u. c #CC4C33",
"i. c #C94A35",
"p. c #D44C32",
"a. c #D94D32",
"s. c #D64C37",
"d. c #C45434",
"f. c #CC5433",
"g. c #C55B34",
"h. c #CC5B34",
"j. c #C4543A",
"k. c #CC543B",
"l. c #C45B3C",
"z. c #CC5C3B",
"x. c #D35433",
"c. c #DB5433",
"v. c #D35B33",
"b. c #DA5A33",
"n. c #D2553B",
"m. c #D35C3A",
"M. c #DA5C3B",
"N. c #DB533B",
"B. c #E35B2A",
"V. c #E15333",
"C. c #E25934",
"Z. c #E24C2F",
"A. c #CC6235",
"S. c #C4613C",
"D. c #CD623C",
"F. c #CC6C3C",
"G. c #CB6836",
"H. c #D46234",
"J. c #D3633C",
"K. c #DA633C",
"L. c #D56A3D",
"P. c #DA6C3D",
"I. c #D96435",
"U. c #CE713D",
"Y. c #D4723D",
"T. c #D1612E",
"R. c #E2683C",
"E. c #975744",
"W. c #8F5441",
"Q. c #A65D44",
"!. c #BC5D43",
"~. c #B65943",
"^. c #B4544F",
"/. c #9B6942",
"(. c #926B46",
"). c #AB6946",
"_. c #B46445",
"`. c #BD6243",
"'. c #BC654A",
"]. c #B36B4B",
"[. c #B86948",
"{. c #A9754C",
"}. c #B5744C",
"|. c #B46B53",
" X c #AB7753",
".X c #BB7653",
"XX c #AE6552",
"oX c #C35D42",
"OX c #CC5C42",
"+X c #C85642",
"@X c #D35C43",
"#X c #D75842",
"$X c #CC574A",
"%X c #C46343",
"&X c #CB6343",
"*X c #CC6B44",
"=X c #CB644B",
"-X c #C46B4C",
";X c #CB6C4C",
":X c #C36749",
">X c #D36443",
",X c #DC6543",
"<X c #D46A44",
"1X c #DB6C43",
"2X c #D36549",
"3X c #D36B4A",
"4X c #DB6C4B",
"5X c #DA654D",
"6X c #CA764B",
"7X c #DB7345",
"8X c #D5744C",
"9X c #DC744B",
"0X c #DB7A4C",
"qX c #D57747",
"wX c #C96B52",
"eX c #D46C54",
"rX c #D96B53",
"tX c #CC7352",
"yX c #C87957",
"uX c #D47453",
"iX c #DC7453",
"pX c #DC7B53",
"aX c #D27C5A",
"sX c #D77758",
"dX c #E26B4B",
"fX c #E26A45",
"gX c #E37344",
"hX c #E3744A",
"jX c #E37B4D",
"kX c #E67847",
"lX c #E37B52",
"zX c #E27858",
"xX c #CB7C62",
"cX c #D57C62",
"vX c #E17B64",
"bX c #B5825A",
"nX c #BD8764",
"mX c #CE814B",
"MX c #D3834E",
"NX c #CA8359",
"BX c #D48453",
"VX c #DB8353",
"CX c #D4835C",
"ZX c #DC835C",
"AX c #DA8A5B",
"SX c #E38459",
"DX c #E4804E",
"FX c #D98865",
"GX c #D28B67",
"HX c #E38763",
"JX c #E3916C",
/* pixels */
"E Q.E ^.) ~.^.) ^.~.^.^.^.g ^.^.oX( ( l.( l.l.&Xz.z.l.l.j.j.j.z.&Xz.D.z.>Xz.z.f.m.z.k.z.n.@Xm.x.c.:.x.f.g.D.a S.3.g.x.x.N.x.w.:.>.>.,.>.>.Z.>.>.Z.Z.V.V.Z.C.Z.Z.C.r.w.C.b.w.",
"=X=X=XoX%XOXj.j.j.W j.~.W g ~.!.l.l.g.g.g.g.g.A.z.z.h.f.f.4.h.m.h.v.h.v.v.m.m.f.4.w.v.v.x.4.8.,.:.:.q.q.g.g.p g.U &.&.*.*.-.+.+.| +.=.| | =.+.=. .#.#. .=.#.-.#.-.#.-.#.#.-.",
"H.I.v.v.0.0.1.1.&.4.4.3.U s d.f.0.0.0.0.0.0.r.0.0.t.0.9.9.8.r.t.t.0.9.t.t.B.t.8.o.B.B.B.9. . . .>.=.:.f.3.g.p R &.$.+.#.=.+.O.| | [ | O.#.[ #.} | [ [ [ [ [ | O.{ | O.[ [ { ",
"1...o.o.....} { o.} 8.1.b b h.4...8.9.t.B.r.B.r.9.o.9.8.o.o.8.9.9.t.B.9.B.B.B.o.9.B.B.B.9.o.o.9.,.=.;.q.#.-.p j &.O.%.;.;.=.=.=.O.#.#.#.#.#.#.O.O.O.} #.#.#.#.+.#.#.-.#.#.-.",
"8.8.-.8.8.o.o.o.8.#.1.4.@.h.f.@.4.-.9.r.b.r.B.b.r.0.r.0.-.8.8.8.r.w.w.w.t.w.w.-.-.-.,.,.-.-.,.,.,.z =.:.%.*.p k %.l z z z z z z | +.=.| +.=.| +.| | +.| =.=.=.|  . .z =.=. .",
"8.,.8.-.,.,.-.-.-.} *.x.&.>Xf.&.:.-.>.>.>.c.w.>.w.b.c.w.q.:.1.*.:.w.:.-.:.-.-.=.;.+.| +.=.>.=.=.,.z =.:.&.3.p U O.O.%.+.z +.k k =.=. .+.| | =.+.z |  .| k | +. .z z k  . .z ",
",.;.,.,.=.-.=.+.-.[ *.N.$.@Xy.f.p.a.a.>.a.a.c.c.c.c.N.x.x.:.*.p.*.:.u.:.p.:.;.%.;.%.%.;.a.a.p.;.,.@.@.T R R p R T U &.&.@.@.#.#.-.#.%.-.=.+.+.+.+.+.+.O.+.+.#.#. .+.=.=. .=.",
">.>.>.>.>.,.,.-. .j @.4.j f.U k.w.>.>.>.c.w.b.C.:.b.x.q.q.*.4.q.*.*.:.u.p.x.:.*.+.+.%.:.a.a.:.O.:.@.R R R ~ r R T T 3.U &.3.@.@.*.%.-.%.=.%.+.%.+.+.+.%.=.%.;.+.=.+.+.+.+.=.",
"r.9.9.t.t.9.o.#.t.T.b H.g.5.R <...o.o.o.0.0.0.0.0.2...X.....2.2.{ 1.e.2.1.8.0.1.0.2...} | } 1.8.#.x.O.U z.^ n j.i.y.u.u.*.%.&.O.+.;.z ;.z z z z ;.;.>.;.;.;.=.z ;.,.,.;.;.=.",
"r.8.8.,.8.8.o.8.{ ..<.4.3.a T 6.{ } o.o.o.o...o.0.0.o.1.2.2.2.2.0.I.I.T.e.8.1...r.e.8.8.} #.} -.%.a.O.U n.d.P z.$.$.l %.%.*.%.%.z %.z ;.;.s.>.;.;.l z z z l ;.;.;.%.%.%.:.:.",
"a.;.;.a.>.;.=.+.+.%.a.$.s.s k.n.a.V.C.C.r.8.w.c.r.r.w.w.r.e.w.b.b.c.C.C.c.>.>.c.C.C.c.>.>.,.=.;.:.x.$.U d.I a W i.i.k.i.u.%.&.&.&.&.&.d.$.P P $.i.i.&.$.i.$.&.y.U U U U U U ",
"+X+X@X5XdX@Xk.j.@X+X+X+X$X^.wX+XOXOXz.j.z.k.OX@XOX@XOX>X@XOX@XOX5X@Xz.@Xz.k.@X5X#XOXn.n.n.k.k.k.OXOXl.^ !.) Y ) W I W I I U L L L E L L L L L f i i i L L i i v B v v B B B ",
"  X . O O . . . X = X - X X X X X . . . X O O O O O = O O O O = + + + = + O O @ # . # o o o o o   #     X X X X         # o O . . X . X X = X = ; = * * > * = * * * * * * * ",
"_ G q q q w G (.9 e e (.e e e e q q q q q q 7 - 9 9 9 q 9 9 0 9 9 9 0 w 0 G Z 9 G G G G G G G G J J ` _ (././././.).|.}.}.}. X X X X X XbXbXbXbXbX{.{. X X XbXbXbX{. X{.{.{.",
"{.' ` ' ` ' }.bX}.NXNXGXnX XnXnX.X X{.{.XX).S M ).].|.}.].).].].).).! K K ].].].|..X-X.X-X.X.X-X[.].].].).|.|.XX|.'.'.'.[._.] )._.'.'.'._._.^.~.'.~./ _.'.^.'.'.[.:X'.:X[.'.",
"BXNXNXmXBXmXMXAXFXGXFXCXFXyXGXxXFXFXaXyXaXaXFXCXtXaXaXaXuXtXuXaXCXCX[.L L ] -XS.%X&X%X%X%X&X&X&X*X%X*X:X'.tXtXwXtXeXrXiXuXsXuXuXwXeXeXeXrXsXzXrXcXsXsXcXcXeX=XeXeX5XrXrXeXrX",
"AXSXHXpXFXHXHXSXSXAXHXJXSXFXAXHXVXlXVXlXpX0X9XjX0XpX9XlXiXlXlXpXNXFXFXr i %XD.j.z.m.x.f.f.f.v.v.z.h.k.z.D.&X>X>X3X4X4X4X1X4X4X9X9XiXiXiXiXzXiXiXiXHXzXvXvXvXW eX5X4X5X5X5X5X",
"SXSXSXSXSXHXHXHXHXHXJXSXJXHXSXSXSXDXDXDXjX0XjX0XDXDXDXDXSXDXDXAXCXFXFXr i &X@Xf.v.x.w.q.8.-.8.0.4.4.4.3.4.f.v.m.m.H.J.H.,X1X1X4XzXiXhXlXhXzXlXpXlXSXzXvXHXzX~ eXiX4X3X4X>X,X",
"CXVXAXVXVXAXSXAXSXAXAXAXAXAXAXVXBXBXBXBXMXBXBXMXMXmXMXMXMXMXMXmXBXCXAXi a J.m.q.:.=.+. . . .o...1.5.<.3.5.6.h.A.H.L.L.L.L.7X7X7X8X7X8X9X0X7X8X0XqXVXpXSXHXaXY ;X9X9X7X7X1X1X",
"0XVXVXMXMXVXVXVXMXVXSXSXDXVXVXMXMXMXmXmXMXmXmXmXmXmXmX6X6XmX6XmXyXBXVXp n z.6.6.b.8.>.9.r.t.B.o.e.e.6.e.H.H.I.I.1XP.P.Y.P.P.P.7XL.qX7X7XqXqXqXqX*X0X6XaXFX6X~ tX9X7X3X7X7X7X",
"kXkXkXkXkXkXkXkXgXkXkXkXkXkXgX7X7X7X7XqXqX7X7XqX7X0X9X9X0X9X0X8XMXBXAXv n ] 7.6.@.#.#...} o.o...q.9.q.0.e.v.b.I.P.I.I.I.P.P.L.P.fXdXfXgX7X0XkXqXqXVXqXaXHX`./ ZX1X1X1XfX1XP.",
"7XP.7XP.R.gXgXfXkXR.gXR.gXgXR.fX1XP.1X<X<XP.1XL.1X7X7XgXhXjXhX0XBXBXAXv n R b R b b b b b { { { } #. .=.-.8.0.e.r.e.v.I.I.I.R.P.fXdXdXdXkXgX9X9XjXSX0XsXHX~ / pX<X1XR.P.fXK.",
"qXqXqXqXY.qXqXY.0X7X0X0X7X7XkX0X1X1X4X1X1X8X1X1X4X<X4X7XdX7XhX9X0XyXAXn v U b U @.1.#.1.1.1.1.#.=.=.z =.-.:.>.w.b.r.b.b.C.R.R.gXfXfXfXfXfXdX4XdX4XzXiXpXHXh E sX,XfXfXfXfXfX",
"MXVXAXMXMXVXVXBXVXVXVXMX0X0X0XVX8X8X9X9X9X9X9X9X9X9X9X9X9X7X8X7X8XuXsXn U ^ I 4.$.O.O.O.#.+.O.+.>.>.>.a.a.c.c.N.v.N.M.M.,XK.fXfXdX5XdX5XdXdXdXiX2XpXsXzXJXf E rX>X,X,X,X,XfX",
"AXBXAXAXFXCXAXAXAXmXJXBXCXBXCXMX8X0XpX8X9XsXlX0X0XuXpX0XpXpXpXpXsXzXvXj t i.i.P i.i.%.s.p.p.p.p.%.$.O.$.$.&.y.3.k.f.z.>XJ.z.&X3XrXrXrX5X=X=XwXuXcXwXFXcXJX& XXxXsXiXeX3X>X*X",
"FXFXGXJXJXFXFXJXJXNXGXyXFXxXaXyXyXpXyX6X6X6X6X-XCXpXaXBXBXpXuXyXrXcXsXh t i.j.+Xy.P l j $.j l j y.W W W ^ ^ ^ ~ ^ ~ ) l.( ( ] =XtXeXeXcXtXwXyXcXGXxXGXGXGX2 |.xXtXeX;X-X;XwX",
"cXFXFXFXHXcXFXJXJXcXFXaXFXFXFXaXaXCXAXFXCXFXCXCXCXaXCXCXaXyXyXyXyXxXwXd g C F f E L L L L E L L f N N B N N N N C N V V C C V H N N V C M V F S M M 0 D W.- 0 0 K H H S S H ",
"& & : : : & : : : : u : r : ; : $ $ ; $ $ ; $ + @ $ ; $ $ @ $ @   . . . . + + % o # @ @ % % % ; : ; , : , , < , < y < < < < , , < y < < < < 8 8 m 9 9 D e 3 W.q Z m m x x < ",
"_.).).].].).).{.).{.{.' /.{.` {.{.{.{.(.J G G J J /.{./.` G J /. X/.` {.{.J A A {.}. XbXbXNXNXNX].}..X.X.XNX.XmX}..XyXyXyXyXyX.X}.[.}.}.}.].}.}.}..X{. XXX X X).bX.X.X}.}.{.",
"_._._.].].' ' ].).{.` _ A J m ` /.` K D Z Z D m Z A J D 8 5 9 D A x 5 J ' J ` ).).).' ] ' _.).' Y Q Y ' Q Q Y ! u v Q / / / / ] ] / / / ~ ] ' / [.[._.].[.].XX).[.}.[._._._.",
"uXuXaXaXyXyXyXyXxXGXyX}..XbX` }.cXcXcXwXwXxXeXxXcXcXcXxXwX-XyXeX;XtX%X;X;X] ;X:X%X%Xl.l.l.j.^ ^ ( l.G.S.^ ^ g.g.a T j.z.j.z.J.&X>X&XD.z.D.F.D.*X&X&X=X%X=XwXwXwX<X*X*X;X3X*X",
"uXuXuXsXuX8XtXtXtXFXNXCXGXJXS ' sXcXrXeXeX=X=X$XeX=X=X$X$X=XwX=Xz.zX2X3Xm.d.>Xd.z.z.f.k.h.v.f.f.f.g.z.g.d.d.z.z.j d.m.n.f.f.x.x.f.h.f.g.z.h.J.J.>Xz.4Xz.2XOXOXOX>X<X>X>X<X>X",
"0X8X0XpXiXiXiXzX8XDXSXBXNXJXH Q uXzXzX7X>X&X*X1X2X3X2X>X>X@X&X>Xz.D.m.J.m.m.m.v.x.v.c.m.b.b.v.q.x.x.f.*.f.f.g.g.U &.3.f.f.h.b.v.m.z.D.J.D.D.G.D.>X>X>X;X3X=X2X;X3X3X*X>X;X2X",
"Y.U.Y.9X9X7XdXhX0XDXSXMXBXFXV Q pXlXhX9X<XJ.J.L.K.H.J.J.J.J.H.J.J.D.J.H.m.m.v.v.x.b.q.q.w.q.q.q.-.-.-.%.%.f.f.d.U R f.x.x.w.b.x.6.z.h.D.J.D.z.D.D.>XD.>X>X&X&XD.3X3X2X;X2X<X",
"Y.Y.1X7XhXdXdXkXkXDXDXqX6XFXB B lXjXjXgX1XL.L.<XL.L.L.P.P.P.L.J.A.A.H.H.v.v.v.w.v.0.q.1.4.0.q.q.-.>.,.#.*.q.4.f.b O.f.x.b.:.w.w.x.v.v.v.v.m.m.v.m.J.J.>X>Xm.@XJ.K.>Xm.J.>XJ.",
"DXP.kXhXhXhXdXkXP.kXDXqX0XSXB v 9XgX0X7XL.L.P.P.P.L.L.I.1X1XP.H.A.H.H.v.H.v.e.e.w.4.1.1.1.3.6.1.w.-.:.#.@.&.4.5.U U 4.e.4.q.4.q.v.x.v.v.v.m.M.J.m.M.>XM.,XK.m.m.J.K.m.m.m.h.",
"kXkXR.DXhXdXhXkXR.DXkXY.0XAXL L 8X7X7XP.P.L.L.P.H.A.A.H.I.L.I.6.H.H.A.T.e.e.e.e.4.1.@.@.@.<.5.<.4.<.@.R R T T ^ L R T 5.3.<.5.1.w.q.x.b.q.b.v.v.M.K.M.K.M.K.m.m.M.M.M.M.m.m.",
"kXY.DXR.hX4XhXkXkXY.DXY.8XSXv i 0X9X7X7X<XP.L.L.A.A.A.H.L.J.A.A.T.6.T.T.T.e.e.v.0.q.3.1.3.3.4.3.@.@.@.3.3.3.g.j.L R T T T R <.3.@.4.4.@.4.f.b.x.m.m.m.m.m.z.h.f.m.m.m.v.v.n.",
"0XqXY.kX8X7X9XjX7X7XY.Y.6XFXf i 9X7X7X<X<XL.<XJ.J.J.J.J.K.m.m.z.g.6.v.v.m.v.v.v.v.f.f.f.x.h.j.4.O.%.%.*.*.*.i.i.U @.&.&.O.$.%.@.&.3.&.3.f.f.h.z.m.z.z.z.z.z.l.z.j.g.h.z.f.g.",
"BX0X6XpXuXtX8X6XqXmX6X6X-XaXd d ;X,X2XJ.>X,X>X2Xm.z.n.m.z.f.f.m.f.h.v.m.m.M.m.M.u.y.*.&.u.y.y.$.O.l l l j j s s P &.i.i.$.$.%.u.j.g.d.d.j.l.%X$X&X&X&XOXOXoXoXl.oXz.OX&X&X&X",
"AXFXGXxXaXxXxXNXmXNXyXbXBXGXK % @X+Xz.@X5X5X#X#X@Xk.k.s.n.n.n.n.n.f.#X#Xk.i.i.l i.s.l $Xu.*.i.$.$.P P P P P j L W j j W P P j.j.d.( `.oX%X%XoX:X:X'.`.~.-X!.~.~.`.oX!.( ~.( ",
"NXNXGXNXxXNXNXNXNXNXNXbXbX{.M @ E W ) ] I L I !.W I L L j h h h h i h i p t h h a t s t i p t t t p t u t g t t & & & % & % % % & : : : : : r : & : : % : ; : : : : : : : : ",
"o o @ @ @ + @ = = + @ = ; ; ; = * X X X = * = * = = = * = * * * = = - > > > > > < < 1 1 , , > , x x x x < 9 x 4 K K E.' ' ' ! K Q Q Q V f d u d F K Q.! E.! Q.XX! ! ! ! ! H ",
").).).].|.|.|.|.NX}.' ` S S E././.w > 5 _ {.` 8 _ J A _ ` ` /./._ (.(.(.{././.` J G A A Z Z A m c c c c M M M M M A A J J J ` K ' Q./ ! Q C C V N V F V g d H ! ! ! ! ! Q Q ",
"6X-X.X-X.X.XyX.X[.] ] bXyXyXyXxXyX-X[.[.6XaXtX-X-X-X-X=X;X-X;X[..X|.! F / '.`.:X'.%X:XS.] l.S.] ] ] ] ] %X`.%X[.%X] `.] ] ] ] ] `.:X[.-X-X-X-X-XwXwXyX_.H Q wXyXxXaXuXaXaXaX",
"FXZXaXaXcXFXaXaXVXmXmXMXCXCXaXsXuXlXlXiX8X3X4X8X2X>X<X3X3X4X3X>XtXyX! E !.=XoXOXz.z.m.m.m.v.h.f.7.5.5.g.5.z.g.z.D.A.S.g.5.A.S.F.&X%XF.:X;XtXuXtXtXwXuX`.B Y wXtX=X%X:X*X*X6X",
"9X8X3XuXuXuX8X*XVXqXqXF.6X8XiXuX9X7X1X<X1X7X<Xz.J.J.K.,X1X1X,X2X!.tX~.L %X%XW U 4.f.4.q.4.4.1.1.0.4.e.v.v.v.m.M.f.v.v.v.H.I.G.I.L.D.D.D.D.*X&XS.3X=XiX%XL I 8X3X3X<X1X3X3X3X",
"lXlXhXzXzXzXlXlX7X7X0X7X7XlXiX4X4XhX4X,X1XhXhX1X1X1X1X,X1XK.K.z.!.tX~ f W ~ U d.3.3.4.v.e.0.q.1.@.1.#.8.4.q.w.e.x.q.e.v.v.T.T.T.H.J.z.z.J.K.K.D.D.D.4XOXa I eX2X<X<X<XF.>XL.",
"hXhXdX1X1X4X4X4XhXdX1X1X1XfXfXfX1X1X4X1X1X,X1X,XK.1X,X,X,XK.K.D.`.-X/ r ( &X^ z.z.g.g.f.v.h.v.e.7.6.3.4.6.q.q.q.q.4.e.6.e.v.6.H.I.,X,X,X,X,X,X,X5XOX5X=XW oXwXuX*X<X3X*X*X2X",
"hXkXkXhX9X8X9XhXhX9X7X7XfXgXgXP.P.<X1XK.>XK.>XK.J.J.K.J.K.m.m.g.`.%X( p ( l.d.g.f.3.3.4.4.6.4.3.6.6.6.e.e.v.v.b.e.r.b.v.H.H.H.H.M.J.K.K.,X,X,X,X4X@X2Xz.I ( eXsX8X8X8X9X9XeX",
"U.U.F.F.F.*X*XF.*XF.F.F.F.G.G.G.L.L.L.L.L.L.K.L.J.H.J.m.H.h.h.z.F.%XOXp l.g.d.f.u.q.*.q.q.q.q.1.#.#.#.1.-.:.-.-.,.-.-.-.8.q.q.q.v.v.v.J.m.m.m.m.>Xz.OX^ a W uXeX4X4XdXdX7X4X",
"U.U.U.F.*XF.F.*X;X*X*XF.U.U.U.G.L.F.D.L.G.D.D.G.A.A.A.A.A.g.6.g.g.( z.p m.d.f.*.:.*.:.*.:.q.:.8.1.#.*.-.:.-.-.,.-.-.-.%.:.:.q.4.M.v.v.v.M.m.m.m.z.>XOXl.L ~ uX3X5XdXrXdXdXdX",
"A.G.G.J.G.F.F.S.F.*XD.L.Y.F.G.G.G.D.G.A.A.g.A.A.g.A.6.g.5.g.5.g.^ T l.s z.d.*.&.*.%.@.#.#.1.#.#.#.#.#.#.O.#.[ | -.-.%.#.#.1.@.q.4.*.q.4.q.:.f.*.f.m.j.3.a L iX2X2X5X5X5XrX5X",
"G.J.G.<XJ.>X>XJ.>XJ.>XD.L.J.H.A.L.H.J.D.D.D.A.z.H.J.A.z.A.h.6.z.^ ^ z.L z.z.f.f.*.*.*.@.:.%.:.*.@.3.&.O.O.O.$.O.%.*.*.@.&.&.*.4.4.4.f.x.f.f.f.f.m.n.&.d.a a eX3XeXrXeXsXrXzX",
"7X4X4XhXiXiX4X4XiX4X3X4X3X4X1X3X,X@X@XK.M.M.M.M.M.M.N.N.x.x.N.N.j.j.j.W P @Xu.u.*.$.%.%.%.:.*.+.x.x.n.x.x.f.x.u.x.f.u.*.u.f.k.f.S.D.D.D.z.z.z.l.%XD.~ %XL p / / '.'.|.'.|.|.",
"%X%XS.&X&X&X&XoX&X&X%X( %X%X`.%Xl.l.z.z.j.j.j.^ j.j.d.y.y.d.W ^ ~ ! L Y i ~ L I L j L I L I I L L L L I L I I I h L L i a a L L B v v v B B f v i c u C :   ; $ $ $ $ ; $ ; ",
": , , : : : : r : : & d : 1 ; 1 , , , , , , , , , > : , , : , ; - - - > > > > * 1 , > > > ; ; ; > ; * ; > < 5 5 5 4 8 4 4 5 5 < < x x x x x x x m M M Z J ` /./.K K K K H S ",
"V V V V N N V C u < y D 2 M 1 9 Z Z w Z Z 8 Z m 5 5 5 8 8 m 8 8 w w w G _ Z G Z m M m m 4 x 5 5 m w 4 7 8 5 5 6 8 8 Z Z Z Z Z A J K K ' ! ' ` ! V A V A M A Z A K H H S V V ",
"! ' Q./ ! ! ! ! E H H Q.E.Q.D Q.].].]._.]._._.]._._._.[.[.[.[.[.].[.[.[.[.'.`.`.~.!.~.!.`.~.!.~.] ~.~.~./ / ! Q ! / / ~.~.~.'.-X_.`.`.`.`.`.!.!.;X-X-X-X'..X[.-X;X;X;X;X-X;X",
"'.:X`.%X( !.( ( oX!.!.'.'.'.F XXwXtX;XwX;X-X;X;X=X=X=X%X=X=X%XoX%XoXOXOXOXOXk.k.i.k.k.k.k.k.j.k.y.W y.j.j.j.j.j.W W y.W y.y.k.+Xi.^ y.i.d.y.i.d.y.i.y.i.W j.d.j.d.^ j.^ d.^ ",
"2X>X>X>X@X@XM.n.@Xk.OXoX$X:Xg oX=X&X*X&X&X&X&X&X&Xl.z.l.z.l.k.z.j.f.f.f.i.u.$.i.%.i.%.u.i.*.i.i.u.*.*.*.*.&.*.u.b P U P j l O.$.;.p.%.;.;.z ;.;.;.;.;.%.O.%.l [ *.3.&.*.&.3.",
",X>X>X@XM.M.M.b.M.n.@Xz.oX=Xp ~.*XK.m.K.K.J.J.K.K.K.m.J.K.m.m.m.v.v.f.x.4.p.:.:.a.N.c.s.a.p.*.:.>.c.a.:.*.q.x.v.O.#.#.#.-.-.:.:.:.:.;.;.p.;.a.>.;.z z l k | k j O.O.O.O.+.O.",
"J.A.h.H.H.I.H.v.I.m.>XD.*X:X& ( K.K.K.K.K.I.I.K.v.b.e.w.e.b.b.e.h.6.6.6.3.1.4.*.#.1.*.@.@.*.@.#.} #.#.} X.X.7.2.b { { { } } } -.1.4.1.4.*.q.8.0.e.0.0.q.6.e.e.e.4.q.q.q.w.4.",
"A.A.A.6.H.T.T.6.v.6.J.D.*X-X& ) I.I.T.I.b.b.b.r.R.I.b.v.b.e.r.e.4.7.<.<.X.<.{ { 1.1.4.6.4.6.6.6.2.0.r.2.2.X.7.7.b X.7.X.1.X.....1.7.<.7.1.1.0.6.T.6.6.6.2.7.7.2.4.1.1.q.4.q.",
",XJ.m.I.I.6.e.H.b.3.fXd.3X-Xr E h.e.v.v.v.v.v.e.v.b.v.e.w.e.q.q.9.1.2.1.1.<.<.<.<.<.5.3.6.6.6.5.1.2.1.7.<.R R 7.b 7.G.b X.X.{ 7.<.X.2.2.1.1.6.6.2.5.5.7.7.7.1.1.q.e.9.8.9.q.",
"M.x.v.J.J.6.e.I.v.4.H.T S.`.& L d.q.4.0.q.e.e.e.e.q.q.4.4.4.q.4.#.#.#.} #.O.{ @.<.@.1.4.3.4.4.4.e.v.4.4.5.7.5.5.n R 7.R <.2.#.4.1.1.8.4.1.8.1.6.5.5.5.5.5.6.4.-.q.8.8.4.8.q.",
"@Xm.x.f.v.v.e.e.b.x.f.k.@XoX& ) y.@.4.q.q.x.q.b.v.b.q.x.x.q.e.b.>.>.>.:.-.:.:.:.q.q.q.x.x.x.b.b.c.a.p.*.*.3.6.g.s 4.f.P O.+.%.:.:.:.w.>.>.a.w.v.f.f.h.f.x.N.:.a.x.v.x.x.x.x.",
"@Xn.i.3.d.3.4.&.O.n.&.#X$X:X% ~.d.*.f.x.f.x.n.v.f.4.*.&.&.&.*.*.:.:.;.;.%.:.:.*.%.%.%.*.%.*.*.*.a.s.p.u.u.u.f.f.a u.k.i.u.%.%.p.*.p.p.p.p.p.p.p.u.k.u.j.k.u.s.i.k.f.d.d.d.d.",
"eX2XD.l.D.&XD.D.d.2Xk.eXwX^.% E ^ d.j.f.z.z.z.z.>X>XD.h.z.h.z.m.x.x.n.f.u.u.f.f.u.f.v.m.f.f.3.4.i.i.+Xk.j.+Xk.j.t W k.i.i.$Xs.s.#X#X#Xn.#X#X#X$X+Xj.+X+X+X$X#X$X+Xl.+X!.+X+X",
"!.!./ / / ] ] / ( =X( =X!.Q.: d %XoX%X&X&X%X&X&X( ( l.( ( ) ) ^ ) ) ~ ^ ^ ^ ~ ~ ~ ^ ^ ] ~ ~ Y R W E W W E E E E r E E L E E h L h L h L h h h L f N f N t h t f f f f f d f ",
"y u x x x c c c f f C C F M 1 : r r r r r r , r u u c i c u u u x 5 4 m m m m x 4 x m 5 5 5 , 5 M M m 8 8 8 w Z w Z A 8 M M m m J K K ' K K E./.G _ _ G W.W.K G J K K K K K ",
"M M M c x N c c r r f f F F D 2 M c c N N c u c , r r u u y u y 5 5 8 w A A Z M A M m 5 , 6 5 5 x 2 5 < 5 5 9 m G ` A 8 D J J ` A G J A J A A G _ _ _ (.J K K K H H H H H Q ",
"Q Q H H S S H Q Y Y E !.~.H H ! Q Q Q Y Q Q Y Q Y Y Y Q ! ! / / ~.-XE :XoX) ( !.oX!.oX%XS.oX] l.( ] l.oXoXl.`.] oX( l.( ( l.oXoXl.%X%X&XOXl.oX'.`.] _.i / !.!.@X@X#X#X@X@X#X",
"=X:X:X:X`._.( ] S.( ( +XoXoXwXcX%Xl.%XoX%X%X=X=Xl.l.( ) ( l.( l.!.=Xf +X+X+Xk.+Xk.#Xn.n.k.OXk.k.k.N.f.m.m.h.h.k.h.z.k.h.m.f.m.M.z.m.m.m.M.m.n.z.z.l.S.i j.z.i.#Xs.s.N.N.N.N.",
"n.+Xk.z.j.d.d.k.#Xs.i.i.i.$.k.@Xf.u.f.d.f.f.f.f.z.m.k.k.f.k.k.z.$X:Xt ~ +Xi.j.k.k.k.k.z.z.k.f.g.f.h.v.v.v.f.h.h.h.h.h.f.f.v.v.h.A.h.m.v.J.m.m.h.D.D.S.n z.J.u.f.k.x.x.x.N.m.",
"a.a.s.x.p.n.x.N.s.;.a.;.:.%.%.s.x.x.a.a.a.:.>.x.c.s.>.:.;.:.:.f.*X=Xp ^ ( y.i.y.k.p.f.x.x.f.f.4.q.q.e.x.e.e.q.q.q.q.q.0.4.e.q.x.v.v.q.v.b.b.v.g.A.A.5.a g.m.4.4.4.h.h.v.m.v.",
"Z.V.C.V.N.c.c.C.;.,.Z.Z.V.Z.c.b.V.b.Z.Z.Z.w.C.C.Z.w.>.>.>.>.w.c.A.&Xa d.k.y.*.*.a.a.x.w.a.q.4.4.q.0.w.w.w.e.w.w.8.8.w.w.8.w.8.w.b.e.q.w.c.b.v.q.6.3.<.s <.4.%.q.q.4.h.e.v.e.",
"Z.Z.>.-.:.-.#.-.=.=.,.=.=.=.-.8.,.-.-.-.-.-.,.,.w.w.,.-.>.>.>.q.T 5.a g.v.*.*.-.:.8.:.w.0.8.8.q.8.0.w.0.9.w.w.>.-.>.8.>.8.w.w.8.w.0.w.8.w.w.w.q.h.4.X.s 3.q.%.q.q.v.q.v.v.v.",
"Z.Z.9.q.1.1.<.4.8.w.-.-.} } ....2.8.8.1.0.8.0.e.9.1.o...} } } <.R ] i g.z.<.4.q.q.8.q.q.q.0.8.8.w.q.8.q.w.w.w.8.-.-.0.w.8.w.q.1.q.q.q.q.4.q.q.6.h.h.h.s 6.x.*.q.q.w.b.w.e.b.",
",.9.9.8.1.#.1.#.[ #.8.8.8.1...X.....1.....1.0.0.0.0...X.X.X.{ X.R T a 5.g.@.3.#.q.w.0.0.0.0.2.1.q.q.w.w.r.8.8.w.-.8.w.8.w.8.4.q.3.0.4.q.#.*.4.6.5.5.g.n 3.3.[ #.#.:.#.q.:.q.",
"w.>.8.-.-.-.-.-.-.=.=.=.#.-.-.-.o.....o.9.1.1.0.1.....1...{ ..1.&.3.p h.&.4.4.4.4.x.v.b.e.q.4.0.8.w.,.w.b.B.C.w.w.w.c.r.w.c.b.b.<.4.4.b.c.b.b.x.A.6.5.U U 3.4.#.#.-.8.w.-.w.",
"8.q.:.-.-.=.-.=.;.-.+.+.%.#.%.#.-.}  .o.-.-.-.9.#.} O.:.| [ O.@.y.y.p k.k.g.j.&.g.v.A.m.v.f.h.e.K.b.b.v.b.v.b.v.x.w.v.x.x.4.*.*.f.d.f.f.v.n.m.k.g.S.T R R 3.d.&.4.b.c.v.M.v.",
"h.h.T.6.f.&.4.*.4.u.f.f.f.f.f.f.c.>.Z.Z.V.Z.V.V.>.>.p.a.a.p.:.x.i.~.t ^.( !.~.W oXl.l.S.l.l.oXl.>XD.j.T ^ ^ ^ d.l.g.j.j.d.^ y.W ) ) +Xj.j.l.$X~.S./ ~ Y Y I E I ^ g.d.g.j.j.",
"g.( ^ ^ ^ ^ T ^ T ^ ^ ^ ^ ) ( l.f.u.u.x.n.u.k.n.k.k.u.k.k.i.k.+X~.E.g F C Q ! ! ! ! ! Q ! ! ! ^./ Q H Y C Y E F N N f C L C f f f f C f L f F h C V M u M N f f B u i f f d ",
"V B C C C Y C L B B C B N N N V V N c N N N M V V V M D D M D F W.e 2 0 2 0 G W.D D W.d W.d W.W.G D D Z D D D M d 2 d D F M F D M D F F f f W.f E.E.E.E./.XXXXXXQ.K H E.E.K ",
"x 4 x x u u M c d M d < 1 1 1 < 9 3 3 3 6 3 6 7 7 7 7 7 3 3 7 0 2 0 0 0 2 0 W.0 0 2 2 2 2 0 0 0 W.e e W.e 0 0 7 G W.W.W.G J W.E.E.E.XXE.E.W.E.W.D D q W.W.W.W.W.D 0 0 G W.D "
};
