/* XPM */
static char *_15d9fd7206a4669f0985757ddcb28c8dPQvvHrHxga1P6Yr[] = {
/* columns rows colors chars-per-pixel */
"64 64 84 1 ",
"  c None",
". c gray14",
"X c #272624",
"o c #2C2B24",
"O c #2E2D24",
"+ c #3F3C25",
"@ c #403C25",
"# c #4C4726",
"$ c #4D4726",
"% c #5F5226",
"& c #6F5F27",
"* c #625A28",
"= c #635B28",
"- c #716227",
"; c #82752A",
": c #82762A",
"> c #A88D2A",
", c #B58425",
"< c #BB8825",
"1 c #BAA62E",
"2 c #EA8E00",
"3 c #EB8E00",
"4 c #EA8F00",
"5 c #EB8F00",
"6 c #EC8F00",
"7 c #EB9000",
"8 c #EB9101",
"9 c #EC9000",
"0 c #EC9103",
"q c #ED9307",
"w c #ED9409",
"e c #EF970F",
"r c #EE9D08",
"t c #EF9A0D",
"y c #EF9810",
"u c #F19A14",
"i c #F29C18",
"p c #F0A70E",
"a c #F1AA13",
"s c #F1AC12",
"d c #F3A518",
"f c #F3B316",
"g c #F3B417",
"h c #F4B517",
"j c #F4B319",
"k c #F4B718",
"l c #F5BA1B",
"z c #F5BA1C",
"x c #F6BE1E",
"c c #F6BF1E",
"v c #C8B22E",
"b c #C9B32F",
"n c #DEB52C",
"m c #F5A120",
"M c #F5A222",
"N c #F6A323",
"B c #F7AA24",
"V c #E7BC2C",
"C c #F8B026",
"Z c #F9B728",
"A c #F9BD2A",
"S c #F6C01E",
"D c #E9C42D",
"F c #F6C320",
"G c #F7C320",
"H c #F9CB25",
"J c #F9CE27",
"K c #FAC32B",
"L c #FBC72C",
"P c #F4CE2E",
"I c #F6CF2E",
"U c #FBCC2D",
"Y c #FAD129",
"T c #FCD02E",
"R c #FCD42F",
"E c #FDD730",
"W c #F7DB32",
"Q c #FDD931",
"! c #FEDC31",
"~ c #FDDF31",
"^ c #FEDE32",
"/ c #FEDF32",
"( c #FEE033",
") c #FEE133",
/* pixels */
"                                                                ",
"                                                                ",
"                                                                ",
"                          655555555555                          ",
"                      65555555555555555556                      ",
"                   5555555k))))))))))f5555555                   ",
"                 55555J))))))))))))))))))F55555                 ",
"               5555s))))))))))))))))))))))))r5555               ",
"              559l))))))))))))))))))))))))))))p555              ",
"            6558))))))))))))))))))))))))))))))))5555            ",
"           555~))))))))))))))))))))))))))))))))))Y555           ",
"          555))))))))))))))))))))))))))))))))))))))555          ",
"         555))))))))))))))))))))))))))))))))))))))))555         ",
"        555))))))))))))))))))))))))))))))))))))))))))555        ",
"       555))))))))))))))))))))))))))))))))))))))))))))558       ",
"       55))))))))))))))))))))))))))))))))))))))))))))))55       ",
"      55J))))))))))))))))))))))))))))))))))))))))))))))g55      ",
"     955))))))))))))))))))))))))))))))))))))))))))))))))55      ",
"     55))))))))))))))))))))))))))))))))))))))))))))))))))55     ",
"    555))))))))))))))))))))))))))))))))))))))))))))))))))55     ",
"    55))))))))))))))))))))))))))))))))))))))))))))))))))))55    ",
"    55))))))))))))))o....))))))))))))))....O))))))))))))))55    ",
"   55S)))))))))))))+......))))))))))))......@)))))))))))))h55   ",
"   55)))))))))))))).......)))))))))))).......))))))))))))))55   ",
"   55)))))))))))))).......=))))))))))=.......))))))))))))))55   ",
"   55)))))))))))))W.......O))))))))))O.......W)))))))))))))55   ",
"  55F)))))))))))))).......:)))))))))/:.......))))))))))))))c55  ",
"  55))))))))))))))).......)))))))))))).......)))))))))))))))55  ",
"  55)))))))))))))))1......))))))))))))......1)))))))))))))))55  ",
"  55))))))))))))))))v...$))))))))))))))$...v))))))))))))))))55  ",
"  55))))))))))))))))))))))))))))))))))))))))))))))))))))))))55  ",
"  55))))))))))))))))))))))))))))))))))))))))))))))))))))))))55  ",
"  55)))/(())(()/(((((((()))))))/))))))))))))))))))))((((()))35  ",
"  55/)//((/)(///(((((((^/)/)/)//)))//))/)//))/)//)(/(((((()/30  ",
"  55//~~)///)///))//()//////////~/////////////////////^^)///55  ",
"  56//~~///////////////////////////////////)/////////(^^))//55  ",
"  55W)~~////////////!!/!////~~~/!//!//////////^^//!!//!!/!//55  ",
"  85Z!~!!!!!!!!!!!!!!!!!!!!!Q~Q~!!!!!!!!~QQQQ~QQ!!!!!!!!!!!z55  ",
"   52QQQQQQQEEEEQQQQQQQQQQQQQQQQQQQQQQQQQQQQQQEE!QQQQQQQQQ!55   ",
"   52EEEEEQQEEEEEEEQEEEEEEQQEEEEQQEEEEEEEEEEEEEEQEEEQEEEEEE55   ",
"   55EEEEETETEEEETEEVPEEETEERRRREETEEETETETPEETETETETEEEEEE55   ",
"   65jUUTTTTUITTTTTT....-RUTTTTTUTTTTET>....TTTTTTTUTTUUTLa55   ",
"    55UUTUTLUUUULTLT........%nUULLV&........UUUUUUUUUUUULT55    ",
"    55LLLLLLLLLLLLLLK......................LLLLLLULLLULLLL55    ",
"     55KKKKKKKKKKKKKKL....................KKKKKKKKKKLKKKK55     ",
"     55AAAAAAAAAAAAAZAA..................AAAAAAAAAAAAAAAA55     ",
"      55ZZZZZZZZZZZZZZZZZ..............ZZZZZZZZZZZZZZZZZ55      ",
"      55dCCCCCCCCCCCCCCCCCB<........,CCCCCCCCCCCCCCBCCCy55      ",
"       55BBBBBBBBBBBBBBBBBBBBBBBBBBBBBBBBBBBBBBBBBBBBBB55       ",
"       555NNNNNNNNNNNNNNNNNNNNNNNNNNNNNNNNNNNNNNNNNNNN55        ",
"        555NNNNNNNNNNNNNNNNNNNNNNNNNNNNNNNNNNNNNNNNNN556        ",
"         555NNNNNNNNNNNNNNNNNNNNNNNNNNNNNNNNNNNNNNNN555         ",
"          555NNNNNNNNNNNNNNNNNNNNNNNNNNNNNNNNNNNNNN555          ",
"           555NNNNNNNNNNNNNNNNNNNNNNNNNNNNNNNNNNNi555           ",
"            6555NNNNNNNNNNNNNNNNNNNNNNNNNNNNNNNN8555            ",
"              555eNNNNNNNNNNNNNNNNNNNNNNNNNNNNw585              ",
"               5555wNNNNNNNNNNNNNNNNNNNNNNNN95556               ",
"                 55555iNNNNNNNNNNNNNNNNNNu55555                 ",
"                   5555555yNNNNNNNNNNe5555555                   ",
"                      55555555555555555558                      ",
"                          855555555559                          ",
"                                                                ",
"                                                                ",
"                                                                "
};
