/* XPM */
static char *result[] = {
/* columns rows colors chars-per-pixel */
"384 48 8 1 ",
"  c #181220",
". c #251E30",
"X c #551C1F",
"o c #00627C",
"O c #854024",
"+ c #CD9152",
"@ c #00AED7",
"# c None",
/* pixels */
"################################################################################################################################################################################################################################################################################################################################################################################################",
"################################################################################################################################################################################################################################################################################################################################################################################################",
"################################################################################################################################################################################################################################################################################################################################################################################################",
"###############################################################################################################################################################################################################################........###########################################################..############################################################################################",
"#############################################################################################################################################################################################################################...........#######################################################......########################################################....###############################",
"############################################################################################################################################################################################################################.............####################################################......########################################################.......##############################",
"###########################################################################################################################################################################################################################...............#################################################........#######################################################.    ...##############################",
"##########################################################################################################################################################################################################################................###############################################...........#####################################################..    ....#############################",
"##########################################################################################################################################################################################################################.................############################################................##################################################.      ....############################",
"##########################################################################################################################################################################################################################.................###########################################................###################################################.      ..  ############################",
"##########################################################################################################################################################################################################################..................##########################################................###################################################.       ..  ###########################",
"##########################################################################################################################################################################################################################.............   ..#########################################...     ..........##################################################.       .... ##########################",
"##########################################################################################################################################################......##########################################################.............    .#########################################..        .........##..#############################################  o  @  .... ##########################",
"#########################################################################################################################################################........#######################################################  ............     .#########################################..         ..............##########################################.         ... ##########################",
"#########################################################################################################################################################........######################################################    ..........      .#########################################..         .............###########################################.         ... .#########################",
"########################################################################################################################################################.........#####################################################     ..........      ##########################################..  o   o   ..  ......#############################################..       ..   .#########################",
"#######################################################################################################################################################.........####################################################        ........       ##########################################..          ..   ....#.....########################################...     ...   .#########################",
"#######################################################################################################################################################.......######################################################          .....       .......#####################################..        .    ..........#########################################...     .    ...########################",
"#######################################################################################################################################################....  ######.....###########################################      .           .........########################################...      .    ..........########################################## ..    .    ....########################",
"#######################################################################################################################################################...    ##............#######################################     .              ......##########################################...... ..    .............######################################.   .  ..    .....#######################",
"#######################################################################################################################################################..     #...............#####################################    ..         .....  ..  ...######################################...  .....   ...............####################################...  .  ..   ......#######################",
"####################################################################################################...################################################..     .................####################################    ..        .......  ..   ...#################################.... ..   ...  .................##################################.. .. . ...  ........######################",
"##################################################################################################........#############################################.          ..............###################################    ..              ..  ..   ...###############################....            .............###.##################################. . . . ...  ..    ..######################",
"#################################################################################################..........############################################.               ..........###################################   ..        .....   .  ..   ...##############################..               .    .......#####################################.. .  .. ....    ......#####################",
"#################################################################################################...........###########################################.                   ......###################################   ..       . .....      ..  ##.#############################..OOOX              XX  .......####################################. ...  .....   .   .....####################",
"#################################################################################################............##########################################.                      ....###################################   .           ....     ... ################################.OOX             O++OO  .........##################################....OO ....  .....  ....####################",
"##################################################################################################   .........##########################################.                       ..###################################   ..           ....     ...################################.XXXX             X+OX  .. ......##################################. ++X  ....OO    .. ... ####################",
"##################################################################################################     .......##########################################.                        .###################################    ..        .  ...     ....###############################..                XO    ..........#################################. OXX  ...O+++OX ......#####################",
"##################################################################################################      ......###########################################..         ###          .####################################     ..       .   ..    .....##############################..                     .. ........##################################  ++  ....O++OX ..... #####################",
"###################################################################################################      .....##############################################     #######         .####################################          ##   .   .     ....###############################.                        ........###################################      ...OOO   ....  #####################",
"##################################.....#############################################################      ....###########################################################        .######################################       ###   .   .      ....###############################.                      ..........##################################    . ...      .... ######################",
"##################################.....##############################################################     ....############################################################       .###############################################    .   ..   .  ...###############################  #.                   .....###..##################################      ...  .   ...  ######################",
"#################################......#############################################################.      ..#############################################################       ##############################################          ..   .. ...#############################    #.                   ......###.##################################      . .  ..  ...  ######################",
"#################################......###########################################################...      ..#############################################################      ###############################################           .   #. ...############################# ####..                  ......###.##################################      . .  ..  ...  ######################",
"################################.......##########################################################....       ##############################################################      ##############################################   ####         #.  ..##################################..                .   #...#######################################     . . . .  . .  ######################",
"################################......###########################################################..        ##############################################################       ############################################## ########      ##.#  ##################################....    #            .  ...########################################    . . . .  . #  ######################",
"################################...##############################################################.        ##############################################################      #####################################################         ###.#  ################################......   ###        ...## #..########################################  .   . .      #  ######################",
"#################################...#############################################################.      #############################################################         ##################################################    ##     ####### ################################..##..   ####     .....## #..########################################  .   . .      ## ######################",
"##################################...############################################################  #################################################################         #########################################################   ######### ####################################    ######   .#....## ##.######################################## #.   . .      ## ######################",
"################################################################################################# #################################################################         #########################################################  ##############################################    ######## ...#....################################################.   . . .  # #########################",
"#################################################################################################.################################################################     ############################################################# #################################################  #########...##.#################################################### . . . #  ###########################",
"################################################################################################################################################################## ############################################################################################################################ . .######################################################## . . . #. ###########################",
"############################################################################################################################################################################################################################################################################################### .##########################################################.. . .### ###########################",
"##############################################################################################################################################################################################################################################################################################. ############################################################# . .###############################",
"##############################################################################################################################################################################################################################################################################################################################################################. ################################",
"############################################################################################################################################################################################################################################################################################################################################################### ################################",
"################################################################################################################################################################################################################################################################################################################################################################################################",
"################################################################################################################################################################################################################################################################################################################################################################################################"
};
