/* XPM */
static char *e9417978da8146beda85ea1173b5a7d6JN9xv9pLlBweXcwK[] = {
/* columns rows colors chars-per-pixel */
"86 86 256 2 ",
"   c #160806",
".  c #15100B",
"X  c #270906",
"o  c #2A1917",
"O  c #371919",
"+  c #32100D",
"@  c #39231C",
"#  c #28261D",
"$  c #381E21",
"%  c #2E1E20",
"&  c #2C2724",
"*  c #3B2424",
"=  c #3D2C2B",
"-  c #382926",
";  c #3A342B",
":  c #3B3835",
">  c #2D3128",
",  c #481918",
"<  c #571B1A",
"1  c #50100A",
"2  c #64181A",
"3  c #661B07",
"4  c #49261B",
"5  c #57261C",
"6  c #67251C",
"7  c #6D2F18",
"8  c #471D23",
"9  c #581D24",
"0  c #442B24",
"q  c #432C2C",
"w  c #4B2C2C",
"e  c #492525",
"r  c #542C2C",
"t  c #582827",
"y  c #43332C",
"u  c #4D332C",
"i  c #48372A",
"p  c #53332C",
"a  c #5A352A",
"s  c #492E32",
"d  c #542D33",
"f  c #5B2B33",
"g  c #433433",
"h  c #4B3333",
"j  c #453C3A",
"k  c #4A3A37",
"l  c #543433",
"z  c #5C3434",
"x  c #543B34",
"c  c #5C3B33",
"v  c #5C3439",
"b  c #543C3B",
"n  c #5C3C3B",
"m  c #55353A",
"M  c #682926",
"N  c #752C29",
"B  c #6C332C",
"V  c #673629",
"C  c #76362A",
"Z  c #652C35",
"A  c #643534",
"S  c #633C34",
"D  c #6C3B34",
"F  c #64353B",
"G  c #633C3B",
"H  c #6A3B3C",
"J  c #6B3436",
"K  c #743B3C",
"L  c #773A36",
"P  c #762F37",
"I  c #691F23",
"U  c #364237",
"Y  c #4A423B",
"T  c #53433C",
"R  c #5B433D",
"E  c #564538",
"W  c #64433C",
"Q  c #6B433C",
"!  c #694638",
"~  c #73433C",
"^  c #7B443C",
"/  c #774738",
"(  c #7A4A30",
")  c #5C3C42",
"_  c #553D41",
"`  c #4A3C43",
"'  c #6B3D42",
"]  c #653C43",
"[  c #773D42",
"{  c #4C4744",
"}  c #544343",
"|  c #5C4443",
" . c #5C4A44",
".. c #5C4B4B",
"X. c #564947",
"o. c #5B544B",
"O. c #5B5754",
"+. c #534D51",
"@. c #644443",
"#. c #6B4344",
"$. c #644A44",
"%. c #6C4B44",
"&. c #6C454A",
"*. c #634B4A",
"=. c #6B4C4B",
"-. c #64454B",
";. c #734444",
":. c #7B4443",
">. c #744B43",
",. c #7C4B44",
"<. c #744C4B",
"1. c #7B4C4B",
"2. c #76454A",
"3. c #64534C",
"4. c #6A5349",
"5. c #74534D",
"6. c #7A5449",
"7. c #684C52",
"8. c #774C53",
"9. c #635453",
"0. c #6C5453",
"q. c #685A58",
"w. c #745453",
"e. c #735C5B",
"r. c #7A5857",
"t. c #5A6159",
"y. c #6C645C",
"u. c #67645A",
"i. c #78645B",
"p. c #60614F",
"a. c #775C62",
"s. c #6A5E63",
"d. c #6A6866",
"f. c #786866",
"g. c #68756A",
"h. c #7C726B",
"j. c #77746A",
"k. c #776D72",
"l. c #797875",
"z. c #6B7875",
"x. c #576967",
"c. c #3E4A4A",
"v. c #853A37",
"b. c #84372B",
"n. c #86473A",
"m. c #8D4B35",
"M. c #8C3D43",
"N. c #864946",
"B. c #974945",
"V. c #86554A",
"C. c #955548",
"Z. c #865957",
"A. c #975B55",
"S. c #874E51",
"D. c #A1524C",
"F. c #89645B",
"G. c #966559",
"H. c #91654E",
"J. c #8A5D63",
"K. c #876866",
"L. c #946965",
"P. c #86756C",
"I. c #96756B",
"U. c #876D71",
"Y. c #847474",
"T. c #8C7473",
"R. c #847B73",
"E. c #8B7C7B",
"W. c #877B78",
"Q. c #957A78",
"!. c #936C72",
"~. c #A87871",
"^. c #A96650",
"/. c #7B8379",
"(. c #6B8277",
"). c #8C847C",
"_. c #868579",
"`. c #96857C",
"'. c #8A927E",
"]. c #A8867A",
"[. c #7C7980",
"{. c #897D84",
"}. c #977E81",
"|. c #B07D86",
" X c #7B8884",
".X c #768F86",
"XX c #7CAEA2",
"oX c #8B8483",
"OX c #888986",
"+X c #938484",
"@X c #938B84",
"#X c #948B8C",
"$X c #9B8C8C",
"%X c #9A8886",
"&X c #89948A",
"*X c #93928C",
"=X c #9B938B",
"-X c #999588",
";X c #988C92",
":X c #8A9793",
">X c #9B9493",
",X c #9C9B94",
"<X c #9C9C9A",
"1X c #969896",
"2X c #8A8C92",
"3X c #A68A87",
"4X c #A6948B",
"5X c #B6968B",
"6X c #A39493",
"7X c #A49A94",
"8X c #A49B9A",
"9X c #AC9C9C",
"0X c #A99797",
"qX c #B69998",
"wX c #B08D8F",
"eX c #98A39A",
"rX c #92A292",
"tX c #A4A29C",
"yX c #AAA59A",
"uX c #B6A49B",
"iX c #B5A792",
"pX c #A79CA3",
"aX c #B99CA3",
"sX c #9AA8A5",
"dX c #8FB1AA",
"fX c #A9A9A5",
"gX c #B4A4A4",
"hX c #B4ABAA",
"jX c #B9A8A7",
"kX c #ABB2AA",
"lX c #B8B4AD",
"zX c #B9ADB2",
"xX c #BAB7B5",
"cX c #ABB4B3",
"vX c #989CA2",
"bX c #C89992",
"nX c #C4A899",
"mX c #C5AAA8",
"MX c #C8B4AA",
"NX c #C7B7B6",
"BX c #D1B4B1",
"VX c #D8A7A8",
"CX c #B3C4BA",
"ZX c #9AC3B9",
"AX c #C6C2BB",
"SX c #D7C6BA",
"DX c #E7C2B8",
"FX c #BFBDC1",
"GX c #CBBCC2",
"HX c #FFBFC0",
"JX c #B5CBC7",
"KX c #C7C6C6",
"LX c #D8C6C9",
"PX c #D1D2D2",
"IX c #E9D3D3",
"UX c #E1E2E2",
/* pixels */
"4X0X9X7X7X7X=X%X,XfXfXvXvXvX2XvXvXsXsXfXzXGXFXcXdXZXXXZXdXvXvXvX:XeXCXfXlXlXJXxXZXJXdXdXdXsXpXvXvXOX:X X.X.X(..Xx.x.x.z.z.[.k.d.OX&X.X&X1X<X<XpXcXdXdXJXJXJXGXzXGXzXpXvX;X2X",
"mXMXmXuXqXyX9X7X9X8XpXLXUXUXFXcXxXJXGXzXaXFXzXpXdXZXZXJXPXUXUXGXAXCXSXBXNXMXNXxXKXCXZXZXcXCXzXzXaX<XeX2X[.z.z..X.X.X2XvX{.{.6XzXfXfXkXkXxXJXGXGXGXKXUXPXJXGXPXGXGXGXaX;XpXgX",
"L.I.K.i.w.w.0.3.7.f.).PXPXpXx.O.j -.] e 8 d ` $ { +.cXGXgX}.!.] v z A [ M.S.Z.J.K.>XUXkXk.a.&.a.) _ 7.O.+.s.d.[..XPXPX}.] k.U.8.@.=.}  .0.r.&.8.-.q.dXJXpXs.] f ] 9 8 , e Z ",
"K.F.F.F.Z.w.%.$.e.b = 0XzXpX+.7.$ m v 8 9 ] [ ) q.` zXIXaX8.[ M.N.v.N M.v.M.P N.F.uXIX`.h -.] f ] d ] -.-.s.s.k.cXGXGXaXa.8.7.' &.;.G G 2.&.[ ' ] ) 8XFXaX) Z Z I 9 9 9 M Z ",
"Z.Z.F.Z.F.V.5.=.l O + aXGX0X_ s u #.[ J P S.S.F | O 5XDXwX:.M.S.v.b.b.B.M.B.M.M.S 4XLX-Xy l &.d ' ) ] ] _ .._ } ;XGXmXU.] ] 8.8.[ [ A A ;.2.[ [ [ ' 3X4X].#.M.[ Z N M N N I ",
"G.H.V.V.F.Z.Z.Z.r.=.b mXBX!.) 7.l R G F ' 2.' r x h MXIXqXS.N.v.C.D.B.D.v.b.I I a 4XIXSXq.= -.G f 8 v ) ) -.} +.7.IXGX_ s 7.8.w J K f f G J Z J J v W.qX4Xw.2.[ I M 2 < < < ",
"G.V.V.Z.Z.i.Z.K.r..._ aXGXU.` * h E T n @.&.=.$.i.i.lXUX3X@.1.S.v.n.B.B.B.N.N.1.V.i.iX4X .0 w w e $ l m k j g ` s.KXAXy.i.q.-.7.5.1.$.R $.| F ] 8.b j.7XoXX.#.Z.J t 5 4 < 9 ",
"Z.V.Z.K.L.K.f.e.U.U.a.9X9X` ` _ & - ; y h b ..9.{ j u.LX4X| n #.~ ^ ,.M B M S p @ k 7X).y q q l q e | X.j j j { d.KXkX: q.u.X...@.*. .T X.} | -.h } j.&Xu.{ R R p 0 @ O 4 r ",
"L.! >.S -.0.a...: j ` k.vXgXpX1Xl.oXoX*Xk.j.+.` j d.;XfXhX0X6X6X4X'.y.p.P._._./.'.rX'.g.U > : j = 0 y h y k { O.*X8Xl._.y.)._.4X}.8.k.k.t.d._ +.X.Y { x.z.d.O...y Y 3.R k 0 ",
"3X].qX`.T.f.k.d.;XvXpXzXGXFXzXzXFXFXGXxXxXlXhX6X>XfXxXGXxXgXaXpX,XyXrXiXfXCX-XyXrX'.&XrX:X[.k.d.P.i.4.#.0.f.R.+XW.).%X7XlXmX7X4XaX|.pXvX2X1X;X{.0X;XOXOX&X;X>X3X@XR._.'.@X).",
"DXBXBXmXjX6X>XoX1XpXzXFXPXPXPXPXIXLXIXGXIXLXIXGXGXGXGXGXmXzXaXaXhXuX7X7X9XNXaXLXBXjXjXmXwX|.aXVXwXbX5XqXuXnXqX5X3XmXBXqX5X3XbXMXaXaXzXGXJXzXNXmXaXaX6XW.W.$X9X6X4X).I.W.`.`.",
"H.6.>.5.`.6XmXzXzXPXPXhX}.s.s.U.U.J.U.a.a.a.U.7.a.8.8.] ' 7.7.7.0.y 0.K.LXmXa._ ) Z.wXVX|.S.[ K M B :.Q J Z F ' !.~.1.1.J ,.~ S.!.8.a.hXfX+...) [ 8.&.....*.&.&.r.L.P.%.R $.",
"H.H.H.6.V.K.jXSX%X%XW.f.f.q.4.w.J.J.J.U.8.a.r.8.Z.S.a.[ 8.J.a.w.e.h ] a.GXaXU.a.&.r.L.J.Z.Z.1.A Z K N.[ J J J J J 1.[ v.L N.Z M Z f 7.zXNXX.7.#.] ' [ 8.w.&.;.2.Q L.I.<.a a ",
"m.C.C.V.6.F.BXBXf.w.) W r.Z.6.#.2.1.&.r.v 2.' #.] ' [ ' #.<.&.-.) ) Z {.GX}.7.U.r.8.1.:.1.Z.N.a D C B Z K K J 9 9 P S.M L M K M.P ' J.gXlXX.$.f [ ' ' &.#.G H ,.>.6.F.H.,.~ ",
"^.D.C.H.C.~.DXQ.A 8.Z.w.Q V ! V.S.8.<.%.n #.5.<.Q ;.] ] @.5.0.=.J.] 8 {.IX|.J.8.Z.Z.A.S.N.,.^ D Z.>.5 + , J ;.[ S.[ J + M t ^ L t 8 i.yXxXo.q.5.2.:.H H Q ! ,.,./ / / V./ / ",
"m.( ( m.C.~.DXL.>.>.>.>.V.V./ ~ 6.Q #.p p l =.#.w.&.] v W 4.4.-.) ] f S.LX[ a.8.2.1.Z.L.V.:.~ S ! A 5 + O r n v + d f , + , < Z G , i.uXCXT b %.J ' Q S ! %.;.S ~ 6.V.! ! ! ",
"X + ! P.! `.SX`.! 5.6.! 6.! H 1.r.@...@.q 9.-.R 7.7.@.0.i.n * ) 0.b | 9XjX0.@.0.=.5.Z.z ;.z <.%.&.=.d $ @.%     h s X s O 8 + f o o 3XaXNXq _ _ d ] -.-.=.<.J J ! %.4.5.! x ",
"o 4.E.j.T y.'.! E Y E i a t f ) g b } g - f.e.k ..7.7.| ..e.q.` : +.O.l.+XoX+XP.b b b w w 0 r x w q = } d.= # O.d.O.j ..s.a.7.-.d.t.pXpXpX_ +.} ` j = : b c z W *.T E h = o ",
"_.xXzX;XW.W._.u.+.j j } { X...9.9.9.d.U.U.0X#XY.0X{.k.d.q.s.{.[.l.OX/.&X1XeXkX,X,Xj.o.y.f.P.i.R X...9.W.8XeX*X1XsX<X*X1XhXfXpXvXeXeXcXxXfX2X/.z. Xx.O.x.g.u.0.y.o.X...9.f.l.",
";X<X2X;X<X>X*X-X[.k.k.{.l.2X2X{.;X`.3X9XjXNXzXNX6X6XpXpXvX2X{. X&X&XOX&X1X,XtXeXfXtXfXyX=X*X=X).=X4X%XfXyXxXtX*X1X*X&X2X1X1X1XsX.X:XrXsX:XvX:X X:X'..X:X*X-X-X6X>X;X$X6X7X7X",
";X{.;X6X;X;X0X6X;XoX;X1X2XvXsXOX'.].].I.Q.wXwXwX%XgX%Xk.8XKXcXeXkXfX1X&X2XeX<X,X_.*XkXeXxXlXAX7XuX4X4XMX4X4X4XyXhXtX&XxXxXJXeXsXcXlXNXxXzXaXhXpX>XtXxXlX0X4XuXqXqXaXmXmXMXBX",
"0X}.wX3XQ.wXwXa.Q.Q.>X#XzXxXJXtX6.m.].H.A.Z.:.N.t 5.n 0.NXCXt.> g.{ : ; ; = > } X.X.q.E yXlX7X3.4.! W 5.4.r.r.a.P.E.Y.KXJXKX.X/.k.f.Y.0.7._ 7.) 9.W.zXmX!.w.8.#.1.6.6.>./ V ",
":.~ V.~ N.~.G.[ ! ~ Z.$.8XfXlX_.( ( m.^.^.m.6 C C./ p i.SXhXY # _ $ = s q s h e.y *.3. .5XqXT.%.6.N.~ M D N.2.t v &.7.%XhXNX[.+.9._ ) _ ` $ ` d $ e.NXLXQ.<.&.~ ( m.n.C ( m.",
"C L N.B 7 v.b.A.^ V.F.E uXlXAX'.( m.m.7 m.m.b.m.m.V 5 ! ].iXp.. o e ] $ O l s d l $.l $.qXmXi.W ^ ^ n.L C.K M.1.1.' d 0.zXUXeXY _ d s ] d 8 8 _ h s.mXGXT.) &.V.n.b.m.m.b.b.",
"C B M 7 7 6 N C n.,.a c 3XAXNXiXm.m.m.m.m.C C m.C.M + / mXyXT o $ v d d , v v n ! 4.R l 5XBX4.! V.C C.L L N.M L K f v m NXxX>Xf.$.u , w d v f _ y 7.qXLX}.G #.A 7 m.7 3 m.b.",
"D V M M M M B B M >.W $.0XKXxX7Xa ( ( ( M B C 5 4 + + 4.gXfXu.{ @.<.z p e @.@.%.! ! R c 5XmX! ! ~ V D B L :.Z K H F b q ;XIXhX+.R w 0 e w 8 $ $   ..mXLX%X| G t V 7 V 7 C 7 ",
"v f r r f f f r $ | | ..2XFXcXOXy.7 i i 8 + O b o - Y oXzXvXx.+.| R 0 * @ x u 0 E E E ! 4XiX! E ! S ! S S S E ! R l   q.oXxX: u.u O 4 4 , 8 + $ X Y.NXjXK.s 8 + e e D 5.H a ",
"!.U.K.!.!.!.K.K.U.U.9.{ k.pXcXzX'._._._.E.{.Y.f.k.k.{.1XfX1X2X;X9XuX5X4X`.`.i.R i i E p.].`.E Y @ @ @ @ @ O @ ; o   Y ).1Xl.Y . # X 4 O O s q -.k.pXhX>XW.e.3.*.*.q * * X 4 ",
"aXaXqXaXmXaXuXgXaXaXyXgXxXNXzXpX7X7X#X{.+X#X).k.{.2X#X>X8X6XpXmXuXMXSXBXnXnX].`.I.I.`.].nXiX_.F.i.5.o.!  .T 9.3.T h.).o.).).f.f.o.p.h.h.P.)._.,X1XfX&X.X&X/.j.l.k.s.d.k.O.k.",
"aXaXaXmXBXBXBXMXIXBXBXSXGXNXNXBXLXMXaXgXaXpXlXAX#X6XyXuXgXqXqXqX5XbXnXnXMXnXVXMXnXbX5XbXbX].].~.i.y.y.j.f.h.j._.>X).$XNX3XgX3X`.P.`.4X7X7X6X6X,X*XsXrXkXkX-X@X,XvX;X{.oXl.[.",
"J.J.A.L.L.L.L.I.F.i.H.L.A.Z.S.6.;.K.K.K.3XBXMX_.I.F.F.H.V.A.G.A.G.G.G.,.V./ C.( H.V.C.H.m.m.V.! 0 h f.`.$X4XE.`.i.0.r.d 8.2.[ [ S 6.1.Z.Z.H 8.n ..e.y.Y.`.U.T.T.Y.+XW.hXlXf.",
"S.N.N.^ ^ ^ ( 6.n./ n./ B C L C :.B t >.3XMX]./ 6.6.H.H.^.^.^.m.G.C.C.n.G.C.C.( C ^ n.H.m.H.C.C A %.5XiXuX3X .b @.p #.;.K [ [ K D N.Z L [ t ;.f ] #.x l l f F l R X.g E.yX= ",
"C.b.v.D.D.v.b.m.D.M.b.b.B.B.v.M.n.v.C.V ].HXF.V.^ C.A.B.m.C.m.m.C.m.m.m.m.B.v.7 m.m.m.C.m.m.b.C M p F.3XqX`.! ! D K B P N.C G.n.B D B V B ~ :.~ ! 6.W a ~ ! V S  .Y - h._.- ",
"v.n.B.C.D.D.B.B.b.b.I b.v.M.v.v.b.N ^ V ].IXL.>.,.N.n.n.n.n.V.H.^ n.C.m.n.B.D.D.C ( ^ C C N C C 5 u i.uXMX`.x 5.;.C.v.n.m.7 ( ! V.,./ L L D / ~ ~ E p ! ~ Q D >.y Y Y ).yXP.",
"M L N.V.S.N.v.J M.P N.S.M.v.[ L N.K / p F.SXi.x r.V.^ >.! ! ! ! a 5 a 5 5 V C V V V ! V V V C ^ F.@ f.LXAX%X0.x H S.K C.n.( / / 6.;.>.,.:.J D ~ >.a ! >.Q Q t A l b x W.qXE.",
"6.%.Q H t t z >.2.9 e z ' 2.v O , t a E j.AXR.o.b R n S E ! 3.! E Y E ! ! 6.6.~ E ! ! >./ V.6.^ e y Y.NXhXf.} U.w.J.,.F.6.6.p.! 6.5.1.6.1.>.%.&.%.c i.x , ;.;.1.x g R %X$XT ",
"g R e.K.e.b O O   O ) ..= j d.W.T.4XgXhXfXcXO.# & j g q = y E i > ; Y Y i i u = x i i i u p e , * % oXzXd.+.+...e.r.@.6.4.6.4.4.4.p./ E x R ! E T T P.4.i c + X   . ; R.R.{ ",
"jXNXAXNXzXjX9X$X;X%X+XoXW.oXOXoXaXgX;XW.d. Xl.z.d.&XE.E.Y.h.'.l.'.).'.@X).Q.Q.h._.h.u.R | *.*.] 9.f.{.;X;XoXO..._ m e e u a i i + ; ; @ @ y - o Y o > ; k  .$.f.R.).;X>X).l.",
"zXgXgXjXaX9X#XQ.d.k.l.k.l. XOX*X#XwX$XfX1X1X1X2XoX>XoX7X7X@XuXqXiX=X4X4X6X5XqX@X`.%X).h.h.T.Y.f.k.Y.8X;XoX8X9X%X}.W.Q.K.K.F.6.i.y.j._.h.R.)._._.rX'.'.,X7X@X`.uXwXwXmXbX5XqX",
"LXqX%X4X6XE.T.+XY.>X;X2X1X<X:X<XmXjX0XNX8X8X6X>XxXhX#XgXqXP.%X3X4X5XqXwXL.F.r.w.f.`.7XyX9X9X4XQ.3X3XT.s.U.$XE.U.a.a.].`.].].].5X'.`._._.P.).-X7X-XyXyX-X_.! E w.>.M M M 9 B ",
"Q.z v #.h m l e e.}.{.%XzXNXxXgXT.w.] ) b q $ % q o l mXwX+ 4 + , < < 9 9 9 9 , O i.4X6X`.y.x * w r l u s d m d r l ~.3X~.].,.6.x 4.`.F.K.iXF.i.F.`.-X].4.5.6.>.M N 6 N v.C.",
"<.G %.G e ] &.n &.-.0.f.f.9XxXa.#.' ' #.z e w d m * @.mXbX, 5 t < I I I I I M 8 , l i.9X$XT @ T =.<.#.A r r d v p n Q.5XI.N.V 5 5 ! ( a G.].< 5 4 E ].5X6.^ K B C N N C b.C ",
"J.H H G F ' F ] -.&.d s e.jXNXe.<.8.2.J t 8 8 d e n r.qXBX5 < M 2 2 2 2 2 2 < 1 t 4 4.4X4Xo.* b 4 r a f f z ] ) e u i.5XK.V D B A.C.6 1 bXbX6 N V 5 ~.^.V C v.N 3 < 6 7 M 5 ",
"K.A r F #.G z &.] 8.s o -.jXBXf.-.#.K F Z f f e n i.I.3XDXA , 1 2 2 2 2 2 2 9 9 e @ R =XuXf.g g u p f e t e 8 q O o K.uXZ.4 , 1 B.v.I N HXHXb.N 7 1 bX~.V.N.N.N B 6 3 6 3 1 ",
"@.) ) e O w q d ` = s $ % {.zX} m n ) ] F f e o & Y T i.MX%., t 1 1 1 1 1 , 1 O +   = @XyXq.$ g b w O + $ d ) ` Y . u.Y.y O 4 J P M N P ~.A.5 C 4 5 VX5XG.>.^ C 6 1 1 6 N N ",
"X.y g g q k g g   % : ` +.<XKXoX{ |  .b q $ * = & & > j.jX%.O f f 8 , 4 , , O O   @ ..l.l.{ & - X.k $ o $ * $ o . . l.eXR.i.n @.:.t 5 , < 1 5 ! p p 5XF.! a a a K C 6 V C B ",
"d.& j d.k.l.k.k.k.1X{.l.OX2X Xz.d.t.q.9.9.9.k.[.l.z.g.eXtXy.q b q @ - @ = $ @ & : d./.z.z.d.+.: > ; g ` 7.s.+.U c.c..XsXOXoXY.U.i.n l l , p ; # # # p.p.y.p. .y p p t t t 4 ",
"=XR.8XyX#X8X<X[.OXOX X:X*X1XhX,XtX=X@X6XaX6X;X;X1XeX X*Xl.).P.Q.h.d.j.h.h.j.g.l.l././.OXoX[.d.z.z.k.W.+X;X;X[.d.x.(..X&X X*XgX7X7X`.P.h.} O.E U Y u.'./.&X_.j.h.i.i.i.4.u 0 ",
"5XiXMXnXMXMXlXAXAXCXyXrX_.4X`.].].5X].].].Q.`.P.Q.9XuX%XqX4XqXMX4XyXuX7X-Xj.:Xz.:XeX;X+XuX-X-XtX7XyXyXuXyX0X6X7XW.*X>X,XeXhXkXyX,XtXOX,X,XxXtX#XNXiXiXMXiX4X5XqXQ.3XwX4X].I.",
"( V.].H./ 6.p.i.-X'.p.E ! H.n.m.n.V.V 5 V ! ~ ! L.6.%.6.K.Z.1.%.0.0.4.f.R.g.kXJXz.O.*.m =.R E Y  . .3.$.$.$.*.w.e.e.f.f.y.q.q.o.y.R._.*X1XfX8X@X0.4.! / ~ >.r.K.Z.r.K.F.r.4.",
"( ( m.H.^ :.%.5.nXiXy.! V.N.m.n.n.( ( a ! / / 6.V.6.Z.F.>.S H >.F.w.] G l - W.eXt.= v d A ' $.*.r.6.w.6.8.8.Z.J.r.7.&.&.7.| R  .R Y j Y l.hX6X .! ! ! V V V V ! t p a c W 4.",
"m.( m.m.N.:.H n 4XnX5.r.S.N.B.D.( V / 7 V ( ! V.V.V.Z.Z.Z.;.,.Z.Q <.;.F v m 7XNXh.o f 9 Z ' G R &.' ' ;.&.&.2.1.Z.&.] ] #.<.&.@.R T h . ..9XjX! ! / ( V V 5 5 4 ! ! ! ! ! c ",
"V.^ n.^ N.K e t 3XmXw.L.,.S.B.B.C.n.( 7 V / / G.^ F.A.! A.;.,.Z.%.Z.S.2.] m 6XzX$X+ 8 f Z ' d w ' H F ;.2.&.#.#.2.&.v d ] 8.' e =.k q o 9.aXmX#.a V 7 V 7 V 7 p 4 5 a a ! ! ",
"V ( ^ / 1.Q r K.mXjXw.L.<.A.S.S.V./ 6.! V V / V.~ H.G.Q 6.W >.Z.G m ) ' ] q {.zXk.O f ] F h } *.#.' #.%.#.G l x h n v l &.J.8.d =.O X & f.jXqXm 6./ ( C V ! V ! V a a a 5 a ",
"4 E a i 3.x q `.0XP.$.3.R 4.6.>.! 6.! / 6.! ! ,.V.~ S <.G 5.@.b q.X._ ) ` & l.sX+.= ` 8 O o U U b R  .$.} Y T o.y j k h _ 7.] s q * y m | 6X0X8.>.! 5 a 5 4 4 4 4 4 4 a c ! ",
"3.i.E ; u.T - _.NX).'.y.3.E W x E R i p W a W ! #.x @.].O n *.3.{ { ` = - & (.:Xx.` = $ k o.g.U # - k Y Y Y p.j.y.u.+.` j : = = * g - % % pXaX) p 4 4 V ! a E ! 4 i a a a p ",
"_.i.g.f.p.> j.@X-XNX7X4XR.q.3.y.k.O.f.h.f.T.3XwX3XT.T.Q.W.d.O.O.{ { { 9.O.d.g..X X,XW.Y.+XOX:X/.OXP.h.o.E u.j._.-Xj.u.; : ; { j g = +.` O.2X{.{.E u X + i E & Y E E i a ! 4.",
"h._.).@X,X7XfXgXNXSXuXNXjX4X`.'.OXOX>X7X9XuXqXqXQ.3X0X6X;X;X{.k.&X1X>XaX%X7X&X'._.7X%X4X4XOX&XOXyX%XyX4X_.P._.].`._._.y.f.y.W.+XE.6XY.W.[.{.}.k.K.P.P.i.T.y.l.*X`._.I.`.].].",
"! =XNXlX3X%XT.T.e.K.L.wX].`.4XuXKXPXzX#X+XQ.T.T.3X3X$X%X+X<XzXFXNXjXqXwXQ.qXuX7X7XqXwXwX3XQ.tXCX).3X3XP.F.].].].].5X].T.E.K.W.+X`.Q.6X{.{.gXpXaX3X`.Q._.7X&XfXOX].].F.i.K.L.",
"X %XBXNXK.3.@.<.L.Z.[ J.<.r.4. .pXxXl.j g h l c d 8 e h ` 7.2XGXzXQ.' Z 8 W 4.W r.r.1.2.] b j.xX`.I.Z.! n.I.V./ ( F.F.Z.`.jXNXNX0.l w.s s ) * ` 0.K.%.f.o.g.sX&X'.`.! E p a ",
"O 3XaXBXT.@.2.2.[ [ M.A.1.L.r.T l.pXf.$ 8 , , 5 t t t v l h q.+XNX!.H [ J ;.G W c J [ :.H w 3.yX5X<.A ~ V.v.M C N n.D t %.3X4XQ.4 t , t F v -.f r Q w | ; u.fX*XiXL.a 4 4 < ",
"n Q.aXBXT.R <.1.[ M.J.A.K #.0 = }.mXU.e e , M 2 < M B f 8 8 d ) qXJ.t K K D t c z V :.N.J u } =X4XG t L B C b.v.C n.V 5 S 7XlX`./ N C B J J t < ,.D a u  .f.cXoX`./ 5 5 6 5 ",
"= _ aXjXY.w.8.Z.S.[ K N.>.! X o Q.aX<., 1 1 I 2 1 3 2 5 < e F <.qX!.f t t 5 + a %.! ,.;.G x o.rXqX%.S a 1 6 b.N C C 7 i 4 _.yX`.n.3 b.I 2 L 1 M L L V.A p $.7XyX6.V < 5 7 6 ",
"q o NXjX+XE.*.] [ [ H >.c i . R 9XBXr.t 8 < N 1 I 1 2 B t , , ) 3X%X@.d A S i 6.a r H H n b { -X7Xp r >.V / C.C L V a ! ; _.kXyX/ b.C L L P K K L J a 5 @ h.7XAX! 5 4 5 6 < ",
". +.>X>Xq.g k ) b h q b * o 9.k.hXpXK.q 8 e , + M.8 t O d 4 X u 0Xe.$ $ 8 d l f w &.] m b o : 6X!.$ O 5.W @ e ! 4 c W b O W.fX{.+ O G F v ] d m n s + b Y.oXOXy.= 0 O 0 O , ",
"W._.#X=XoXk.+.- = j ..O.+.d.OXoXoXl.k.d.e.-.| 7.8.v q + @ = y f.8Xh.-.} -.7.n x O e * % ; - +.pXaX}.f. .; Y u.E o.E y = & k.2Xk.{.}.s.y m ..a.7.*.q.O.k.oXOX1X_.j.f.y.y.3...",
"&X&X1XeX1X>X#Xl.l.l.@X_.W.*X*X_.eX1X#XoXoXl.U.`.E.Q.W.R.h.h.j.&X&X/.g.l._.)._.R._.R.d.O.O.t.d.&Xk.l.OX'.(./.&X'././.j.l.g.:XsXkXzX#X+Xl.W.W.8XY.8XtX=X8XfXfXcXlXyX-X@X).W.P.",
"xXxXkXkXkXlXlXtXhX=XtXtXeXfX<XkXeXkXfXfXfXfXOXl.#X7X@X=X_.'.@XtX&X&XrX1X<XfXuXyX].`.`._._._._./.@X_./././.(.(./.'.&X&XOXOX:XsXsXhXtXfXuXhXNXgXNXNXhX8X,X<XtXkXkXkXtXxXfXyX6X",
"@X-X=X$XR.P.R.h.W.i.h.f.h.R.h.=XoX;X>X1XfXfXkXxXyXlXkXNX9X=XR.d.h.E.).T.P.K.L.F.I.L.I.I.I.~.].U.T.T.h.y._.iXCXiXyXyX%X).yXhX8XoXo.@X| b }  .k T.e.e.f.q.o...o.9.X.o.>X%Xh.9.",
"i R i.w.n c $.5.@.@.$.x x u 0 h b k g ` j k j.KXAX7Xh.9.i T T R b $.5.5.~ ! V V ^ / ^ C V K D V A Q @.R i.iXiXp.R $.@.p *.w.q.} 0.K.e.mXe.w r.e.r.@.*.| | *.R | ; : +X}.*.b ",
"6.;.' 1.Z.A.S.D G ;.[ 1.Z.A p G 8 w ] 7.) = 9.jX).X.*.h d ) z v p l W 6.6.~ ^ N.( n.C C C L L C t f a l 4.iXiXi.0 c w.G #.@.e.w.n e !.VX8.t L.A <.A f r f H f p x h T.Q.R *.",
":.[ N.:.K K N.J M.K J L.~.~ D Z.8 F ' 8.| _ K.jXQ.} e.) ] [ F F G l S ~ ~ D ^ n.B C C C L C N C M Q <.E R iXlXE u l 5.<.w.G =.G z ;.5XX X F H ' f z S.;.A J t F l w K.Q.G 8.",
"K N.S.[ L [ N.[ Z K [ L ;.Z.S.H [ 8.&.8 e.+ f.lXf.h _ -.] v F [ ' W S Q / ,./ / 6 n.C 6 L C M P A H G 0 P.MX3.X 0.$.n W <.W G &.#.' e #.G r.A A r #.F F A ;.G G l + =.K.K.$.",
":.H ;.1.;.;.K 9 < t H S.>.! t z &.f ' =.a.y R.uXf.} | b m ] ] v G W S A V t V V C ^ C 5 M N M C [ z G n `.uXy.0.R $.G z W G c W $.R e n c 4.R R =.4.W n E ! n W $ o 0.i.3.k ",
"%.p &.I.F.p r $.R ! =.$.$.R 3.3.=.=.e.k g y.yXOXO.& # . & g _ h G a p a a c V V ! V V A D C J ;.f z l O q.4Xq.; = T x e r a c n k i - i i Y i Y ; ; = @ ; @ - y o & u.y.o.j ",
"y * | f.0.i h *.T 3.q.o.u.y.u.{ ..g y ; ; d.kXfXkX(././.8X+X{.}.P.i.%.! 5.5.4.W W 0 4 p u l b v %.b | y.OX&X+.: X.9.*.x p u i i i ; ; ; ; # # > U ; ; ; Y Y ; : Y X.j.j./.l.",
"y.f.h.h.Y.%XoXf.%X_.+XOX,X_.OX_.@XT.j.y.y.j./.&X,Xg.l.j.#XOX_.#X%X)._._._._._.j.j.j./.'.2X[.[.z.Y.f.j./..X(.z..Xg.(.j.d.u.9.3.p. .T ..9.q.o.o.u.p.u.p.O.u.p.o.3.u.y.f.u.q.y.",
"xXhXjXzXzXhXzXhX6X<XfX_.:XOXfX<X-XuXuX=X9XlXfXlX8XfXfX8XzXKXzXhXlXlXMXkX4X'._._.j.g.g.g.[.[.2XvX8XyXfX1X:XsXsX:XrXkXhX$X'.-X-X=XuX4XQ.Q.P.u.q.y.j._.f.h.u.h.y.f.F.h.I.K...q.",
"a...7.f.7.= ` q.a.{.9Xk.8XxXxXoXi.R $.0.e.| h e.q.}.0XNXzXjXO.b e l %.4.4.w.f.h.} {.jXGXGXpX{.{.U.8.a.0XtXd.{ : k.pX6Xa.n W G f t 8 + d 4 s 0 h i.3XT.T.0.U.w.r.f 8 G w.l w.",
"| -.-.| d ) ] d _ s | k +XtXhXR.p e >.G %.<.R z l 7.a.qXaX0X..-.#.' H H #.! z d a.aXjX$Xk.7.` 7.] ] v ) h q : % _ 3XwX' t H Q t Z M < ' r v + O ! `.P.Q.S Z.t 5 K , < M , 1.",
"] ) ] ) f f ] f ] ] s 7.f.hXlX0., 6 C V M D >.! S a K.4XBX5XR $.>.K ^ ~ A K %.r h f.6XNX..h ` _ d t t d s 8 $ $ s aXaX8.H ' Z Z P 2 < V r + O h f.T.F.! 5 5 6 C 2 I N M M a ",
"$ O 8 v ) f f d 8 w O s 3.7XtXE a 6 B ^ ^ / ~ D D W 6.5XmXK. .%.~ ~ ,.:.K 1.<.c * f.$XgX+._ _ d r t t r e 8 $ $ $ wXwXn 8 r 9 f 9 M M A e O b h.4XP.x O 5 V C 7 N I 6 2 1 5 ",
"s._ d ) ) d s 8 O 8 o : 9.kXkXu.6.5 M 6.V.Q A ! %.R 0 4XMX3.T x c S #.;.#.<.=.l @ E.7X=X` s = O r 8 e , $ $ $ - $ 0XaX..s d w r , < t e o o X.{.R.f.E 4 4 , 1 1 6 6 < 1 , , ",
"l.+.` ` ` q s s s = o o { eXcXrXF.a p ~ ! p x R R h O %X9XX.b y p l n G G #.@.k : tXzX>X+.: - s l e * O $ % & = ` 6X8Xs._ g o o n p u = = g O.z.g._.`.P.p.a 4 a a 4 + X X X ",
"l.t.t.g.s.{ ` g & = ` l.&XsX:X/.y.R p E h 0 h T = = k k.f.: j ` b } b b b b h = ; _.OXz.{ & o = = @ o o o & > : : d.z.z.[.l.d.j.W.P.y.u.d.d.z.l.OX&X*X1X@XR.i.i.E T E R u.P.",
"sX:X1X<X Xs.+.+.s.t.z.:XeXsX.XeX@X`.`.).h.P.W.W.l.j.oX#XoX{.{.OX#X#XE.Y.T.U.d.d.g.&XoXl.d.+.j T  .} { X.+.O.x.z. X2X:XvXfX1X*X<X,X-X#X&XOXl.[. X2X:X*X&X-X'._._.P.f.f.y.l._."
};
