/* XPM */
static char *_da5f1eece824dfc98a974d6459914b9rd7263YWHykzrL0Q[] = {
/* columns rows colors chars-per-pixel */
"64 64 256 2 ",
"   c #1B100A",
".  c #2A1507",
"X  c #2B1108",
"o  c #381907",
"O  c #391D14",
"+  c #39230D",
"@  c #302719",
"#  c #3A2718",
"$  c #372B23",
"%  c #352F27",
"&  c #441B08",
"*  c #511D0B",
"=  c #48250B",
"-  c #55290C",
";  c #58320B",
":  c #452A14",
">  c #4B2B14",
",  c #482818",
"<  c #552A16",
"1  c #49321B",
"2  c #5C3414",
"3  c #573618",
"4  c #54341B",
"5  c #5B3A1C",
"6  c #652B0D",
"7  c #64360B",
"8  c #653716",
"9  c #643C1C",
"0  c #6B3B1B",
"q  c #733C18",
"w  c #472C22",
"e  c #5A2A20",
"r  c #493726",
"t  c #533521",
"y  c #593526",
"u  c #543C23",
"i  c #5C3C23",
"p  c #543B2B",
"a  c #5C3C2B",
"s  c #493D33",
"d  c #573D33",
"f  c #633C24",
"g  c #69382A",
"h  c #683C29",
"j  c #59431D",
"k  c #69431C",
"l  c #76461B",
"z  c #5C4226",
"x  c #59442B",
"c  c #4C4333",
"v  c #4B463B",
"b  c #544433",
"n  c #5C4333",
"m  c #514B35",
"M  c #5C4A33",
"N  c #52453B",
"B  c #57493A",
"V  c #5C4D3B",
"C  c #644323",
"Z  c #6C4324",
"A  c #6B4727",
"S  c #63442C",
"D  c #654A2C",
"F  c #6D4B2C",
"G  c #724523",
"H  c #734C2C",
"J  c #784928",
"K  c #6D532C",
"L  c #76522C",
"P  c #634533",
"I  c #644B34",
"U  c #6A4A36",
"Y  c #644C3B",
"T  c #734C33",
"R  c #774B37",
"E  c #6D5335",
"W  c #64533D",
"Q  c #6A5739",
"!  c #6C543C",
"~  c #745334",
"^  c #7A5433",
"/  c #73543B",
"(  c #7B543C",
")  c #785A38",
"_  c #7C5B3C",
"`  c #7C613A",
"'  c #4C4A43",
"]  c #584D43",
"[  c #5C5344",
"{  c #57564B",
"}  c #5B554B",
"|  c #5A5A54",
" . c #674F41",
".. c #635443",
"X. c #645747",
"o. c #6B5343",
"O. c #6C5B44",
"+. c #645A4C",
"@. c #6C5B4B",
"#. c #765544",
"$. c #745C43",
"%. c #7B5C43",
"&. c #735D4C",
"*. c #7A5E4A",
"=. c #655D52",
"-. c #795F50",
";. c #68614C",
":. c #7B6344",
">. c #75624C",
",. c #7A6649",
"<. c #7C634C",
"1. c #6D6354",
"2. c #686457",
"3. c #6C655B",
"4. c #746453",
"5. c #7C6454",
"6. c #746955",
"7. c #7C6A54",
"8. c #75645A",
"9. c #746B5B",
"0. c #7B6C5B",
"q. c #7C715C",
"w. c #5D6162",
"e. c #6A6A65",
"r. c #736C63",
"t. c #796E65",
"y. c #7A7467",
"u. c #787975",
"i. c #86572A",
"p. c #8E562D",
"a. c #945127",
"s. c #835D34",
"d. c #895937",
"f. c #835C3C",
"g. c #88643A",
"h. c #96683A",
"j. c #AC6D3A",
"k. c #845C43",
"l. c #846344",
"z. c #8C6543",
"x. c #896847",
"c. c #83644B",
"v. c #846A4D",
"b. c #8C6B4C",
"n. c #966B47",
"m. c #89714D",
"M. c #97754B",
"N. c #826653",
"B. c #846B54",
"V. c #8C6C52",
"C. c #846B5A",
"Z. c #956C54",
"A. c #8B7253",
"S. c #89755A",
"D. c #8C745B",
"F. c #947454",
"G. c #9B7454",
"H. c #997A56",
"J. c #94745B",
"K. c #947B5C",
"L. c #9B7C5C",
"P. c #A67749",
"I. c #AE744C",
"U. c #A47A57",
"Y. c #856F63",
"T. c #877766",
"R. c #8C7B64",
"E. c #837B6C",
"W. c #957B63",
"Q. c #9B7D63",
"!. c #967968",
"~. c #857C73",
"^. c #A77D64",
"/. c #B57A62",
"(. c #9F804E",
"). c #9C825B",
"_. c #A6845B",
"`. c #B08955",
"'. c #B78759",
"]. c #8B826C",
"[. c #9C8263",
"{. c #978568",
"}. c #93836C",
"|. c #9B846B",
" X c #8A8374",
".X c #948472",
"XX c #9C8B74",
"oX c #968A79",
"OX c #9A927A",
"+X c #A48364",
"@X c #A78868",
"#X c #B68A66",
"$X c #AA916C",
"%X c #B6946A",
"&X c #A38B73",
"*X c #A88A75",
"=X c #B98D75",
"-X c #A49274",
";X c #A3937C",
":X c #AA967A",
">X c #B79878",
",X c #BAA07B",
"<X c #CC916F",
"1X c #C59868",
"2X c #C59A77",
"3X c #CFA772",
"4X c #C8A27A",
"5X c #DFAA70",
"6X c #DAAB79",
"7X c #7B7F80",
"8X c #998F82",
"9X c #8E908B",
"0X c #9A9485",
"qX c #A79986",
"wX c #AD9C83",
"eX c #B49B87",
"rX c #B29789",
"tX c #A69D93",
"yX c #ACA28D",
"uX c #B9A587",
"iX c #B3A38B",
"pX c #BBA48B",
"aX c #A8A496",
"sX c #B9A996",
"dX c #B5AC9B",
"fX c #BDB29A",
"gX c #B7B1A5",
"hX c #BBB4A5",
"jX c #C89D86",
"kX c #C7A887",
"lX c #D6AB87",
"zX c #D6B68C",
"xX c #C5AB97",
"cX c #D0AD94",
"vX c #C7B49A",
"bX c #D7B698",
"nX c #E6B990",
"mX c #C8B7A5",
"MX c #C9B3AA",
"NX c #D4BCA4",
"BX c #E1BFAA",
"VX c #E7C698",
"CX c #CDC1AC",
"ZX c #D9C4A9",
"AX c #CCC3B5",
"SX c #D8C9B6",
"DX c #DDD2BC",
"FX c #E7C9A6",
"GX c #EDD2B5",
"HX c #E5D5BC",
"JX c #FAE4BB",
"KX c #D2CDC2",
"LX c #DAD5C4",
"PX c #E6D7C7",
"IX c #F4DFC9",
"UX c #F2E5D1",
/* pixels */
"D.H @XyXgX].U.T wXxX!.n.k.Y.Y.' dX1 F G.#X_.Q uX>XnXlX^ f R /.I.p.<Xs.R 0 6 g k.r B._ _ k.S K.x.D M.M.+Xk.y / g , y y Y U b 9.%.",
"4 a 5 H 8 . < S d o > = > , U r s  XmXs 2.hXO @X>Xh 5.X C K Z i f R ~ F S.1 y.d ..% e.d ..V O.: 4 XX0.! J.N.*.t b.c.*.C.! UXxXUX",
". ] 9.q.v b.>.! &.T.a n b ! rXY.hXy.KX{ y.0XB uXC.;Xa 1 6...O.6.P b e.V N.} } u.] ] Y.~.@.6.5.E.].B.W.M.@X^.( 9 y < h =X2XQ.:XE ",
"1 $.i I E 8 = j D G > C.! %.U I 4 k 8 C > E A L k K l r.vXq.W >X4XG.ZXo i > y y i T 2 3 < : 2 %.>.=X'.`.p.i.I.%X6X6X1X5X3X2X1Xm ",
"O._ r S.4.).I ,.9.!.R.D.NXSXN.SXK.:.6.3.0.r.oXXX|.0.|.UXSXAXfXZX` ).ZX7.W.i U 2 1 ].z :..XU f.9 M.) i.1X6 '.lX6X4X`.P.6X1XU.'.| ",
"-X0X+.AXdXB.$Xe.9Xe.[ 8.0./ *XY %X4X+.oXPXSXR.].B 4.T.W g.m.<.K.b.D.x.OXqX:Xx.G.hXNX}.XXyXU.U.4X<Xh.< IXbXZ.Z.V.y %.a r : r 5 W ",
"IXvXwXK.R.u g.$ t.@.qX3.0.Y 8X8.bX#XB 8XtX] &.>.@.o.T.[ 5.R.].XXoXoXOXOX;X-XH l.R.SX{.6.oXU.P.+Xx.Z.J.o O , ( Q.D =X2X@ % @ i V ",
"S k 4 Q O...4 i.T oX}.B Y.8XsX..` ,.6.z H l.b.Z +XH.D ) ,.y.0.0...E.y.A.bXpX[ #.W.v.~ W B W M o.n O.! M U Y Y 1 4 ;.&.X 4.fX%.. ",
"n R.W.. j I 0.;.@.Y ;.O.>.t.1.J.0 8 f.d.> 9 H @X, d._ : $XS.S.` ,.Q I ).Q.b.Q.A.U.0XhX} =.' } +.9.~.W.W.C.!.!.!.W.B.C.U P 4 k 5 ",
"U vXS s 2.r.1..XOXmXaX% V oXxX>XP.a.d.d.< z.R f.G b.h _ _.+.@ y.6.m 6.W ] ] v 2.B q.W XXV.Y.E..XXXE.y U a C.X.O i 1 d , H t.oXV ",
"= 1 # A !.&.Z.L _.n.i.l 7 > k M.0 l l G J q 8 i.0 H l . 1 ' c y.r.1.2.l '.i./.6 6 /.3X0 n.R G U.. + 3.y.u.r.u.w.| 9X| s r c + r ",
"%.] O : !.Z.z.^ <XI.j.j.1Xb.M.@XG s.A J a.i.s.d.f.H.D . V [ | B.4.>.9._.J j.<Xn./.X d.J i.z.1X'.r w.u.e.9X7Xu.u.w.9X| ' } | e.r.",
"r d / w #.#.= l l k g.^ = ..rX;X .s d $ s N.+. .p uXuX>Xx C W.fXpX:.hXj j z 3 M Z S D Q.=X4XbXcXn.T.#XeX  rXU.J @ r u { | 2.{ B ",
"p 8X!.d o *XS C k i.l g.: 5.@.!.hXv =.=.&.B e.} ,X>X) x.kXH.VX>XM.uXsX;.V ;.;.4.+.! <.+XM.lXG.k n.U.+.OX^.#XNXNX, v { | | 2.e.3.",
"p 7.5.gXuX:X>XuXvXvXvXkXkXsXtX@.sXtXsXmXd MXR.xXQ.J.W.t.xXT.~.: {.n SX4X>X; M.P.+X9.X.=.t u E x D ` c.z :.M u ..*.ZXlXkX4X:X>.T.",
"P.n.U.kX*X& # H.cXkXZXcX+XNXZXKXpXsXNX^.bXQ.K.=X=XU f.w ] h   L nXVXmX%XH.(.p.M.7 c ~.} } 4.Y.B 4.+.] } ' v v [ p M o.V S.! Q 6.",
"J.Z.*X= y , , < > < < - 2 - ` g.g.g.` 4 M.g.x.g.k z.F ~ l.c.H.<.L G q l 7 l l q l i.~ {.b.x v r.2.XXm.Q >.} 6.[ m { } v +.W | y.",
"X k.&X3.| } =.y rXiX8XW.N.. . # o |.K.J.*X>X$X,XZ.K.>X_.@X_.>XU.7 g.i.L s.L f.n.J.E S : H 1 . . . 4.$ % M l.S.S.9.t.:Xl.F.. K.o ",
"eXjXpXeXpXfXxXiX&X5.t.kXNX# oX0X6.sX].m.H.+Xm.A.K.$X[.C.R.L (._ >.B.<.Q c.<.R.$.8.g.x.;.7.6.e.[ r.9.{.}.oXr dX0Xq.;.2.#X+Xh 2 4 ",
"5 S > : : 4 1 X : 5 : C 5 U |.0.>.1.z u u 4 + x y 1 y y + s @.V O.yXCXdX3.y.{ | 3.c ..&X;Xm 6.x r ].pX].yXCXoX].% n #.= = - & = ",
"B.} I >.t.9.>.v +.8.~.@.9.c OXE.r E.T 2 Z U < 4 & * & o d , , $ W.7.b aX@.s } v ' ] ] b MXXX].v.0Xm V xXCXZXmX:X-.d.< & g < < & ",
": - O & * & & = = o A o k O = X & y 9 ; k pXeXjX.XeX1 #.y a , S.S...Y U y E Z H = < 5 Z - 2 & 2 - k * 0 5 4 f T O o.u v.I 1 5.! ",
"I S T / b.H J #.E , J.B.E   Y p ) u 8./ c..XqX( jXMXU.#X#.5.H.GXo.P jXg 1 N.|.$X_ Q.-.U.9 0 d.k.1 W.> H e P 9 Z X.Y.y.0.&.3.X.=.",
"eXN 8X8X9X.XE.0XtX~.r.oX X@ O dXiX!.5.5.p sX, g g d y h.s.n.L k %._ g._ $ 1.@..Xr.Y.%  X.XE.dX$X).>X>X&X|.|.J.|.ZXHXZXJXSXe.0 P.",
"|.wX!.dXLXSXfXDXLXhX0.PX0..XZ.cXxX!.!.*XV.rXw O rXC.o 6.oXT.c t.E.T.B.x.b MXN r.PX:XdXOXq.DXPX:XuXuXvXwXOX{.].C.bXJ.ZXvX>Xm 5 6X",
"uXmXZXb.C l.z.H S G.FX8 F.p 1 : P S 4 y D z S z R.E B.L.z.J.m.E v.V.m.[.F.F.g.4 eXC.^.@X5 f.k.3 :.<.l.c.7.qX,.v.l.M.U.$X{.yX`.,X",
"7 :.cXS H.3 F n.) ~ 4 F / B p p B V s s s V s V c p <.#.( G F.L.n.^ H.`.kXt ! o jX=Xk.C.) Z Z.R b.b.k.x.o.V b @ m W [ q.].q.[.# ",
"! O A.h.k - G C F C Q v $ =.=.v ] 8.AXI T.:X>.<.E.AXV tX<.qXW dX}.$.! ;.+.8.@.P w w , w X w X.B . , # 1 M z &.rXS x 1 W : $XkX_.",
"Q <.zX,.T.>.V V 1 p $ { % % =.% m $ J.b.V._ l./ b.:.*XL.Z.J.+XQ.Q.g.g.) l.z.FXbXxXMXNXxXMXMXxXxXW.@XsX+Xc.%.+XZX:X[ B.vXsXuXOXDX",
"1Xn.0 y.!.;XV V 0.@.oX{ mXdXiXgX! ZX5.5.S.l.@X*.I C.R T ^ z.^ G # X d.0 ; q cXNX_.h.U ( I @Xo.a !.rX;X|.jXn.4XDXqXyXyX~.:XsXHXZX",
"p.3Xi.i.k k ; - = o + S o GXI GXNXcXUXPX&.o = ^ ^ L bX6 I.>XkX<XkXP.cXeXJXNX^.k.:.O.! t n 0 9 G J & - H 3 0 6 = L & 1 ! + M x 3 ",
"%X$Xn.U._ :.F.@X:Xq.}.$X).$X+XT G.L.J.nX0.oX:XrXiX8.'.#XlXI.a.h.=X'.#XkX:X|.@XkXuXpXvXxXNXi.0 J 6 G x @.1 5 0 A ~ y R.c W D ) M ",
" .y &XE.mXyXqXCX).).r [ M 1 C S v.H F K.v.PXPXSX&.qX_ Z Z < 3 a < P & , . 5.d > F i.l h.c.&X-XiXuXwX.XI qX@.p r ;XQ 5 z |.$X-X>.",
", #XA y.3.XX:XiXbXzX$XpXvX6.y.3.].W # ] R.IXHXPXT.SX&.t w p F I UXpX3 n ] $ Y.X ..T.&.~.0.&XqXiXyX;XE.0XB.D + pXuXiXS.yX,X-XS.q.",
"R cX%.MXoXmX.X0.$ iXV.XX:XXX8.dXu.fXmXmXyXgX X|.XX&X).).H.F.) s.4XkX%XU.>XkX=XwX&X2X$XC |.4 k._.$XI.`.HXHXK.|.X.OXOXPXvX].r.;.{ ",
"_ !.W./ XXS.m.o.< 4 Y u : 1 4 p O.[.A.S.:XuX>X&XXX-X&XK.{.|.t _ kX>XP.=XjX_.=XkXkX6X>XFXC *X=X2X-X*X>X3 $.f.Q r.X.uX>X-XwXoX .vX",
"O.B.b.b.-X>X).NXJXJXJX4XVX4XGXFXU.bXnXt K c M 4.7.@.2.! [ X.X.V 1 T #.k.V.k.#.%.x._ V.U.U.eXP.kX2X&X/.z.F R &.PXmXu 0 9 7 2 8 8 ",
"Q.] b # x P t > - < 5 j f O X bXFXnXlXzXFXbXSXjXcXAXdXqXm $ % @ o J.L.L.n.f.z.z.G.k.F %.M > C C S b 4 y T 2 = . X : #.B Z p KXhX",
"B.T.r.>.X.E : t U / 3 = t U a.g q a.q I.j.j.q /.'.T.MXSX) %.6.! >.&.T &Xf.8 z.G G 4.( V Q >.# N B X   @   t d   r y P U / # 9X9X",
"Y c.R yXiXpXXXQ.Y.t.S t Z V.6 X - - o J g.J J 7 J 0 _ k |.LXHX8.X.y.r.=.-.!.DXhX] AXLXOXN.x / G.G o &.U f f ^.M *.>XnXs.xX..wX&.",
"( Q ) ZXUXpX_ %.#./ *.k.d.* g 6 < *Xu :X$X{.{.O.M R.,.v.:.bXV.N.wX+. X0.DXZXvXhXaX6.>XqX7.&Xc.c.U U U r @XyXK.%Xh.'.3X).xX).x yX",
"d.xXA.mXsXtX4.=.r b &.s  .#.4.y P Y W P 1 z 4 z M 0.8.@...8.1...GX@XFXU.h.OXbX-XZXLXVXCXW.;Xo.fX-XM.E.m v.x $ X.q.Q i.I Q ,.W ! ",
":XQ.*XP rXtXgXqXP  .B iXDXSX!.~.~.~.y.~. X8X XOX X X2.~..XyX4.HX4XkXcXVXzX_ VX1XuXE.Q sXB.o 5.qXdXpXmXy.E.[ v  X].6.b.M.n.x.C.0.",
"z kX, ~ x.z.>Xc.S U.z.G.- & & g b , N.Z.4 - - S < g d o.x I M.v.g.g.g.g.s.L i.A ^ A E M.C z ~ / m.M % c $ B ] b >.B.z 1 F + _ E ",
"k 5 x.(.M.J.eX|.<.@X+XZ.^.k.Z.V.Y.:Xz V I f.R y _ R %.% X.B.kX[.4X].T.0.E.R.oX;X}.oXoX~.OXN r [ vXyXgX9.O.X.;.dXhXAXhXCXvXvXGXbX",
"2.4 :.Q g.+XZ.P.n.R J I.U.<XU.n.s.* c V 0.=.m V 6.;.4.. V.4 d y T B.kXs.U |.W.0XS.O.# w T.#.Y XXR.OX XoXtXwXiXfXDXaXyXSXfXfXLXhX",
"M 9.E 1 ZX>X2X>X- & f 8 - C ~ x o ^.JXCXD.c.Q 5 ) :.=Xo U 3 D >.x ;XmXsXNXyX: C T K / 5 r ; i S ` C ~ z D 5 j ` ` ` D D 7.q.x k ",
"d.# V }.L.~ 1XU.w d , < g Z.k.>Xn.d.a.I.'.a S.c.>.I 7.Y >.m XX} V 6.}.0.+.6.7.0.r.7.<.7.V.&.W.b X.z S <.*.` x  XoXOXyXqXq.AX[ O.",
"h.n.M.k L g.g.h.k L *XuX%.H.).J p.h._.M.h.g.Z.R.0XsXiX. 7.O.W O. .O.1 o 1 > B 8.s ' 8.+.@.&.Y |.M.3 ~ J I.U.U.; h.3 ^ g.s.s.k z.",
"b.%.).).:X{.).,.l L ! ;XIX&X&XpXXXyXm.-X- z.@XiXyX:X-X1 S B...mXn R.&.1.&.V U *X .:XpX>.B.N.h jX@X9 '.k JXlXl U.%Xh.`.p.h.3X_.$X",
"#.< ^ P u.3.e.E.t.OXgX-X# XXCXdX8.^ T.FXGXUXC.eXOXgXV . :XwX;XwXSXUXgXOXOX8XoXaXUXPXUXIXP =X< S n XXs.n.# 5 p i 7 2 & # 1 z ` D ",
"U - 9 3.;.2.| e.c S.yXT.:X0XdXtX0Xx ZXSXvXNX-.*.PX XfX  xXK.DXDXSXMXtXLXqXqXaXLXLXSXLXLX2X .U.5.( /.i.< < #.a y *X4 d $ s q.OX].",
"F BXS.. 7.Q vX7 p.p.VX>XZ a.h.6XzXqX5.. *Xm.z.( g.b.H.x.E >XJ.b.kX` m.Z _ f.U.f.E ^ x <.5.p # M c 5.< G r X.U U U 5.( U @ ;XR *X",
"g.K.D {.A.v.%XP.h.'.'.j.`.`.1X/.%X&XV.&.I 4 y / P / c.F.zXzX<X4XlXlX%X^ ~ s.n.^ ) ( ~ B.|.@   o 5.D.k.*.2 , b N &.o.g a   N.=XJ.",
"sX].fX{.SXfX$X).K._.l 6 l i.L ~ ^ $.sX&.! B.5.*.V.^ yXfX:X*XqX8XJ sX` _ %./ c.b.) ~ F t >XG.'.h.f.s.'.f.R 2 f.R H h * U.^.R f < ",
"~ k ).M.` :.A.4.$ >.#.R.*.R.0.;.7., b.4XcXa > N.xX1 3 ~ < & < f 9 G ^ :.D.! eXW.!.S < V.f i.8 h > ~ R E = o = D f h 3 K f.F F c.",
"3.4.S.W E z ^ E X.S.L z D.C 6.6.+ d.k l 2XU ^.lXG.b.= <.< > h T <.o a / eX@XJ.H Q.*Xf n.&X|.:XoXoX].q.| 3.9.y.9.9...y.q.q.6.$ ;.",
"NXLXR.fX0.R.R.XX].) s.~ l.C K ~ Z ) ^ L s._ w J.R @X~ b J h Z G Z ( U V.x.>X&X=X%XU.G.cXf.bX+XV.xXO.sXT.eX;XvX0.3.aXyXOX-XQ.hXm ",
"iXNXUX$X:XmXSXiX@XR.A.O.@.0.+.[ 1.] V I O.+.W.W.> J.^ T ) ^ %.( 2 #.V.kXNXcXv.+XU.cX=XlXP.d.e n.Q.cXK.NXmXyX:XqXaXW gXiXwX:X6.d ",
"l g.p.g.s.k.K.lX` %XiX(.zXdXSX2.' y.5.4.y.r.u.tX9X5.L.%X>XQ B.K.Y D.B.z.^ h %.P.`.h.9 _.o 2 P T = I j 3 5 + = Z H z z 8 L g.z.%X",
"F.[.n.h.n.G.,.$Xm.FXnX$X=XuX1.2.y.q.B.I @.2. X0Xy.:XkXm.%XT.qXV rX*X.XlXG.+X2 1XVX5XnXn.o o.b  .C.,...5.B.! r ..C.U %.h.h.P.g.U.",
"&X).H.H.K.H.F.).m.m.m.).:.x.g.$ N.C.s.> , < 6 = J g.k 7 i.H G.U.^ U.n.4 > ) / F Z - F g.S y 8 z ~.t Z.N.N.Y $.%.b V.<._ N.D . < ",
"H.$X).)._.@XH.>X,Xc # x . o.u . X , o P   o o o l., H o + ^ %X#X@X; h.+ 4 S H R h 2 g z.0 0 h , R.*.c.V._ *XJ.& H !...~.V     X ",
":.7.[.D.S.x.x.F.g.,X,.:./ A.T a a t ].5. ./ s.|.FXzX1XP.l.SX,X,.).$XeXHXHXf f.G G 6 0 6 q 8 l.~ 6 G 6 0 0 < T < & y.[ B X.] +.s "
};
